<svg xmlns="http://www.w3.org/2000/svg" width="1200" height="560" viewBox="0 0 1200 560" font-family="Arial, sans-serif" font-size="12">
<rect width="1200" height="560" fill="#ffffff"/>
<text x="80" y="24" font-size="16" font-weight="bold" fill="#1a1a1a">Hydraulic profile: MOMBA_RIVER to UHURU_GSR01</text>
<line x1="80" x2="1170" y1="427.9" y2="427.9" stroke="#e5e5e5"/>
<text x="72" y="431.9" text-anchor="end" fill="#555">1,400</text>
<line x1="80" x2="1170" y1="325.4" y2="325.4" stroke="#e5e5e5"/>
<text x="72" y="329.4" text-anchor="end" fill="#555">1,500</text>
<line x1="80" x2="1170" y1="222.8" y2="222.8" stroke="#e5e5e5"/>
<text x="72" y="226.8" text-anchor="end" fill="#555">1,600</text>
<line x1="80" x2="1170" y1="120.2" y2="120.2" stroke="#e5e5e5"/>
<text x="72" y="124.2" text-anchor="end" fill="#555">1,700</text>
<text x="80.0" y="518" text-anchor="middle" fill="#555">0.0</text>
<text x="217.2" y="518" text-anchor="middle" fill="#555">10.0</text>
<text x="354.3" y="518" text-anchor="middle" fill="#555">20.0</text>
<text x="491.5" y="518" text-anchor="middle" fill="#555">30.0</text>
<text x="628.7" y="518" text-anchor="middle" fill="#555">40.0</text>
<text x="765.8" y="518" text-anchor="middle" fill="#555">50.0</text>
<text x="903.0" y="518" text-anchor="middle" fill="#555">60.0</text>
<text x="1040.2" y="518" text-anchor="middle" fill="#555">70.0</text>
<text x="640.0" y="542" text-anchor="middle" fill="#333">Chainage (km)</text>
<text transform="translate(20,275.0) rotate(-90)" text-anchor="middle" fill="#333">Level (m)</text>
<polygon points="80.0,500.0 80.0,468.8 81.4,469.0 81.4,462.9 81.8,462.9 81.8,462.9 83.6,462.9 84.2,462.8 84.9,462.7 85.6,462.6 86.3,462.5 87.0,461.4 87.7,460.3 88.4,458.5 89.1,457.5 89.7,456.2 90.4,456.7 91.1,456.3 91.8,456.3 92.5,456.2 93.1,456.5 93.8,456.6 94.5,456.8 95.2,457.1 95.9,456.7 96.6,456.5 96.6,456.5 97.3,455.4 97.9,454.5 98.6,453.3 99.3,452.2 100.0,451.4 100.7,449.7 101.4,448.5 102.1,446.8 102.8,445.0 103.4,444.0 104.1,442.1 104.8,440.6 105.5,439.5 106.2,438.4 106.9,437.6 107.6,437.2 108.2,437.1 108.9,437.5 109.6,437.7 110.3,438.3 111.0,438.9 111.7,439.7 112.4,440.0 113.0,440.3 113.7,439.6 114.4,438.5 115.1,437.7 115.8,436.3 116.5,434.9 117.2,433.1 117.8,431.1 118.5,429.8 119.2,429.0 119.9,428.1 120.6,427.2 121.3,426.6 122.0,425.4 122.5,424.1 123.1,424.0 123.8,425.7 124.5,425.1 125.2,423.7 125.9,422.3 126.6,420.6 127.3,421.5 128.7,421.3 129.3,421.8 130.0,424.8 130.7,424.6 131.4,424.1 132.1,424.0 132.6,424.9 133.3,424.0 134.0,423.6 134.7,422.5 135.3,421.9 136.0,421.0 136.7,420.8 137.4,420.1 138.1,419.9 138.8,419.1 139.5,418.4 140.2,417.4 140.8,416.8 141.5,416.2 142.2,415.3 142.9,414.7 143.6,414.2 144.3,413.3 145.0,412.9 145.6,412.4 146.3,412.0 147.0,412.1 147.7,412.4 148.4,412.9 149.1,413.4 149.7,414.3 150.4,414.9 151.1,415.9 151.8,416.8 152.5,417.7 153.2,418.2 153.9,419.4 154.5,420.3 155.2,421.0 155.9,422.1 156.6,422.7 157.3,423.2 158.0,423.1 158.7,423.3 159.3,423.2 160.0,422.9 160.7,422.9 161.4,422.7 162.1,422.4 162.8,421.2 163.5,422.0 164.1,422.0 164.8,421.9 165.5,421.6 166.2,421.2 166.9,420.8 167.6,420.3 168.3,419.9 168.9,419.5 169.6,418.7 170.3,418.1 171.0,417.4 171.7,417.0 172.4,416.3 173.1,415.8 173.7,415.3 174.4,414.6 175.1,413.8 175.8,413.5 176.5,412.5 177.2,412.3 177.9,411.4 178.6,410.9 179.2,409.1 179.9,409.6 180.6,409.0 181.3,408.2 182.0,407.5 182.7,407.2 183.4,406.4 184.0,405.8 184.7,405.4 185.4,405.0 186.1,404.3 186.8,404.2 187.5,404.3 188.2,403.4 188.8,403.5 189.5,403.0 190.2,402.6 190.9,402.5 191.6,402.5 192.3,402.4 193.0,402.9 193.6,402.7 194.3,402.5 195.0,402.7 195.7,402.5 196.4,403.3 197.1,402.7 197.8,402.6 198.4,402.0 199.1,401.4 199.8,401.2 200.5,400.4 201.2,400.3 201.9,400.0 202.6,399.3 203.2,399.4 203.9,399.0 204.6,399.0 205.3,398.7 206.0,398.9 206.7,398.6 207.4,397.7 208.0,397.7 208.7,398.3 209.4,398.3 210.1,398.4 210.8,398.1 211.5,397.9 212.2,398.9 212.8,399.2 213.5,399.6 214.2,399.8 214.9,400.0 215.6,399.6 216.3,400.2 217.0,400.2 217.6,399.9 218.3,400.0 219.0,399.5 219.7,399.1 220.4,398.3 221.1,397.6 221.8,397.5 222.4,397.6 223.1,397.3 223.8,397.0 224.5,396.7 225.2,396.8 225.9,396.9 226.6,397.1 227.2,396.9 227.9,397.8 228.6,398.2 229.3,397.9 230.0,398.8 230.7,399.1 231.4,399.3 232.0,399.4 232.7,399.6 233.4,400.1 234.1,400.4 234.8,400.1 235.5,401.4 236.2,401.3 236.8,401.6 237.5,402.4 238.2,402.7 238.9,403.1 239.6,402.8 240.3,403.9 241.0,404.2 241.7,404.4 242.3,404.6 243.0,405.9 243.7,405.9 244.4,405.9 245.1,406.9 245.8,407.5 246.5,407.6 247.1,407.9 247.8,407.9 248.5,408.2 249.2,408.3 249.9,408.6 250.6,409.0 251.3,410.9 251.9,411.4 252.6,410.3 253.3,410.5 254.0,411.0 254.7,409.8 255.4,408.8 256.1,408.7 256.7,409.0 257.4,409.1 258.1,408.5 258.8,408.2 259.5,409.0 260.2,408.5 260.9,405.7 261.5,404.4 262.2,402.9 262.9,401.8 263.6,401.0 264.3,399.3 265.0,397.9 265.7,397.0 266.3,395.4 267.0,394.7 267.7,393.5 268.4,392.1 269.1,390.6 269.8,389.6 270.5,388.3 271.1,387.6 271.8,386.7 272.5,386.1 273.2,384.7 273.9,384.5 274.6,383.8 275.3,383.5 275.9,383.3 276.6,383.3 277.3,383.3 278.0,383.8 278.7,383.9 279.4,384.2 280.1,384.2 280.7,384.8 281.4,385.0 282.1,385.3 282.8,385.5 283.5,385.7 284.2,385.6 284.9,385.5 285.5,385.2 286.2,385.2 286.9,384.5 287.6,384.4 288.3,384.2 289.0,384.0 289.7,383.8 290.4,383.2 291.0,382.7 291.7,382.1 292.4,382.0 293.1,381.2 293.8,380.6 294.5,380.3 295.2,379.8 295.8,379.1 296.5,378.7 297.2,378.5 297.9,378.0 298.6,377.9 299.3,377.5 300.0,377.8 300.6,377.3 301.3,377.1 302.0,376.9 302.7,376.8 303.4,376.2 304.1,376.5 304.8,376.5 305.4,376.0 306.1,375.8 306.8,375.8 307.5,375.9 308.2,375.6 308.9,375.5 309.6,374.8 310.2,375.5 310.9,375.4 311.6,374.9 312.3,375.1 313.0,374.6 313.7,374.6 314.4,374.5 315.0,374.1 315.7,374.0 316.4,373.9 317.1,373.6 317.8,373.8 318.5,373.7 319.2,373.6 319.8,373.7 320.5,374.3 321.2,374.3 321.9,375.1 322.6,375.4 323.3,375.8 324.0,375.9 324.6,376.4 325.3,375.7 326.0,375.3 326.7,373.8 327.4,374.4 328.1,373.4 328.8,372.2 329.4,371.3 330.1,370.0 330.8,370.2 331.5,369.5 332.2,368.8 332.9,368.9 333.6,368.4 334.2,368.1 334.9,367.9 335.6,367.2 336.3,366.8 337.0,365.7 337.7,365.6 338.4,364.7 339.0,364.0 339.7,363.5 340.4,362.5 341.1,361.3 341.8,359.3 342.5,359.1 343.2,357.8 343.8,356.7 344.5,357.2 345.2,356.6 345.9,356.0 346.6,355.2 347.3,354.5 348.0,353.4 348.7,352.1 349.3,351.5 350.0,349.7 350.7,348.7 351.4,348.3 352.1,347.7 352.7,346.7 353.4,343.1 354.1,339.0 354.7,335.3 355.4,331.0 356.1,324.2 356.8,315.5 357.5,301.9 362.8,175.7 363.1,175.2 363.3,172.9 363.6,171.9 363.8,171.8 364.2,175.1 364.6,171.9 365.3,165.7 366.0,159.9 366.3,158.6 366.3,158.6 368.7,244.2 369.4,268.9 370.1,286.7 370.8,301.9 371.5,315.0 372.2,322.9 372.9,328.7 373.6,335.1 374.3,338.9 375.0,343.1 375.7,346.3 376.2,345.7 376.9,344.6 377.6,343.7 378.3,343.0 378.9,343.0 379.6,345.5 380.2,348.8 380.8,350.6 381.5,353.1 382.2,354.3 382.9,356.0 383.6,357.9 384.3,359.1 385.0,360.3 385.7,361.6 386.3,362.8 387.0,364.6 387.7,365.7 388.4,367.1 389.1,367.5 389.8,368.7 390.5,369.5 391.1,369.8 391.8,369.1 392.5,370.5 393.2,370.3 393.9,370.2 394.6,370.0 395.3,370.2 395.9,370.3 396.6,369.4 397.3,369.4 398.0,368.4 398.7,367.7 399.4,367.2 400.1,366.6 400.7,366.6 401.4,366.3 402.1,366.0 402.8,366.5 403.5,366.7 404.2,367.4 404.9,366.9 405.5,368.0 406.2,368.6 406.9,368.1 407.6,367.8 408.2,368.0 408.9,368.0 409.6,368.1 410.3,367.8 411.0,367.8 411.7,367.6 412.4,367.4 413.0,366.8 413.7,366.6 414.4,366.2 415.1,366.1 415.8,365.8 416.5,365.7 417.2,365.4 417.8,365.0 418.5,364.9 419.2,364.3 419.9,363.9 420.6,363.3 421.3,362.7 422.0,361.8 422.6,361.4 423.3,360.7 424.0,359.8 424.7,359.3 425.4,359.2 426.1,358.8 426.8,356.9 427.4,357.8 428.1,357.2 428.8,356.7 429.5,355.8 430.2,354.7 430.9,353.7 431.6,352.6 432.2,351.6 432.9,350.4 433.6,348.8 434.3,347.2 435.0,345.4 435.7,344.3 436.4,342.6 437.1,341.3 437.7,340.1 438.4,340.1 439.1,340.8 439.8,341.1 440.5,342.3 441.2,344.0 441.9,343.7 442.5,344.8 443.2,345.0 443.9,345.0 444.6,345.1 445.3,344.6 446.0,344.3 446.7,343.9 447.3,342.3 448.0,342.4 448.7,342.2 449.4,341.2 450.1,339.8 450.8,340.2 451.5,339.1 452.1,338.3 452.8,336.6 453.5,335.6 454.2,334.7 454.9,333.4 455.6,330.9 456.3,331.0 456.9,329.1 457.6,327.5 458.3,326.7 459.0,323.6 459.7,325.4 460.4,324.3 461.1,323.8 461.7,323.1 462.4,322.0 463.1,322.0 463.8,321.1 464.5,319.5 465.2,319.2 465.9,318.1 466.6,318.5 467.2,317.8 467.9,317.9 468.6,317.6 469.3,317.0 470.0,316.4 470.7,315.7 471.4,315.5 472.0,313.2 472.7,311.0 473.4,309.9 474.1,307.4 474.8,304.2 475.4,304.0 476.1,304.4 476.8,304.4 477.5,304.2 478.2,305.1 478.9,306.5 479.6,307.4 480.2,307.7 480.9,307.8 481.6,307.6 482.3,307.5 483.0,307.3 483.7,306.0 484.4,305.1 485.0,303.7 485.7,302.6 486.4,302.1 487.1,301.3 487.8,301.6 488.5,301.8 489.2,303.1 489.8,304.5 490.5,306.3 491.2,308.2 491.9,310.2 492.6,312.0 493.3,314.5 494.0,316.0 494.6,316.7 495.3,317.5 496.0,318.7 496.7,318.5 497.4,318.7 498.1,318.8 498.8,318.4 499.4,318.5 500.1,318.2 500.8,318.9 501.5,319.0 502.2,318.7 502.9,319.3 503.6,319.0 504.3,318.8 504.9,318.5 505.6,317.7 506.3,317.1 507.0,316.9 507.7,316.2 508.4,315.3 509.1,315.1 509.7,314.5 510.4,314.5 511.1,314.9 511.8,315.9 512.5,316.7 513.2,318.1 513.9,319.2 514.5,320.5 515.2,322.2 515.9,323.7 516.6,325.4 517.3,326.0 518.0,328.2 518.7,328.9 519.3,332.8 520.0,330.2 520.7,329.5 521.4,329.4 522.1,328.9 522.8,329.3 523.5,327.7 524.1,327.7 524.8,327.5 525.5,327.6 526.2,328.3 526.9,328.7 527.6,329.3 528.3,328.4 528.9,329.6 529.6,329.7 530.3,329.2 531.0,330.1 531.7,330.7 532.4,331.6 533.1,332.8 533.7,334.2 534.4,336.5 535.1,338.3 535.8,334.4 536.5,332.2 537.2,329.7 537.9,327.1 538.6,324.6 539.2,321.8 539.9,320.4 540.6,318.2 541.3,316.5 542.0,314.6 542.7,313.2 543.4,311.9 544.0,311.3 544.7,310.8 545.4,311.0 546.1,311.7 546.8,312.3 547.5,314.6 548.2,316.2 548.8,318.8 549.5,320.3 550.2,322.9 550.9,326.1 551.6,327.8 552.3,330.1 553.0,332.0 553.7,334.2 554.3,336.2 555.0,340.6 555.7,343.1 556.4,339.4 557.1,337.0 557.8,335.5 558.5,333.5 559.1,331.1 559.8,330.0 560.5,327.6 561.2,325.1 561.9,322.9 562.6,320.1 563.3,317.9 564.0,315.9 564.6,314.1 565.3,312.1 566.0,310.6 566.7,309.3 567.4,308.8 568.1,308.6 568.8,308.6 569.4,309.4 570.1,310.0 570.8,309.6 571.5,311.4 572.2,311.5 572.9,310.5 573.6,309.4 574.2,308.7 574.9,307.2 575.6,306.0 576.3,305.4 577.0,304.0 577.7,304.0 578.4,303.3 579.0,300.9 579.7,299.6 580.4,297.5 581.1,296.7 581.8,294.7 582.5,293.6 583.2,292.4 583.8,291.3 584.5,290.5 585.2,290.1 585.9,289.4 586.6,289.0 587.3,286.1 588.0,283.9 588.7,281.4 589.3,278.3 590.0,276.6 590.7,274.0 591.4,272.2 592.1,270.8 592.8,269.0 593.5,267.7 594.1,266.4 594.8,266.3 595.5,266.4 596.2,267.6 596.9,268.4 597.6,269.3 598.3,270.8 598.9,271.0 599.6,271.2 600.3,271.3 601.0,271.4 601.7,271.3 602.4,271.3 603.1,269.9 603.7,269.1 604.4,268.6 605.1,267.4 605.8,267.4 606.5,266.8 607.2,266.4 607.9,265.9 608.5,265.7 609.2,265.9 609.9,266.5 610.6,267.0 611.3,267.3 612.0,267.3 612.7,269.2 613.3,269.4 614.0,269.9 614.7,271.8 615.4,270.7 616.1,274.8 616.8,274.6 617.5,274.6 618.2,274.9 618.8,274.2 619.5,272.6 620.2,269.3 620.9,268.6 621.6,267.8 622.3,266.0 622.9,265.1 623.6,264.3 624.3,262.8 625.0,262.0 625.7,261.5 626.4,260.7 627.1,259.3 627.7,258.5 628.4,258.3 629.1,257.3 629.8,256.7 630.5,255.9 631.2,255.6 631.9,254.9 632.5,254.8 633.2,254.7 633.9,254.8 634.6,254.8 635.3,255.3 636.0,255.4 636.7,256.6 637.3,257.8 638.0,257.8 638.7,259.0 639.4,259.9 640.1,259.7 640.8,260.2 641.5,261.5 642.1,261.5 642.8,261.9 643.5,262.2 644.2,261.9 644.9,263.6 645.6,264.5 646.3,265.7 646.9,265.9 647.6,267.6 648.3,270.4 649.0,270.6 649.7,272.3 650.4,272.7 651.1,277.4 651.8,277.7 652.4,280.7 653.1,283.8 653.8,286.0 654.5,287.8 655.2,290.3 655.9,293.2 656.6,294.8 657.2,298.2 657.9,300.2 658.6,302.7 659.3,304.9 660.0,307.0 660.7,309.5 661.4,311.1 662.1,313.1 662.7,316.9 663.4,315.8 664.1,314.4 664.8,313.7 665.5,311.1 666.2,310.1 666.9,307.5 667.5,306.0 668.2,304.3 668.9,302.5 669.6,301.2 670.3,300.3 671.0,298.9 671.7,298.0 672.3,296.6 673.0,295.3 673.7,294.8 674.4,294.0 675.1,293.1 675.8,292.9 676.5,292.5 677.1,292.1 677.8,291.8 678.5,292.4 679.2,292.3 679.9,292.6 680.6,292.7 681.3,292.9 681.9,293.3 682.6,293.4 683.3,293.8 684.0,294.1 684.7,294.5 685.4,295.9 686.1,296.7 686.8,297.6 687.4,299.3 688.1,300.6 688.8,301.8 689.5,304.4 690.2,305.8 690.9,307.5 691.6,309.1 692.2,310.8 692.9,312.4 693.6,312.5 694.3,314.7 695.0,316.3 695.7,318.0 696.4,319.1 697.0,321.1 697.7,322.8 698.4,324.6 699.1,326.2 699.8,326.1 700.5,326.3 701.2,325.3 701.8,323.6 702.5,321.3 703.2,319.7 703.9,317.6 704.6,315.9 705.3,314.0 706.0,313.1 706.6,311.4 707.3,310.8 708.0,310.1 708.7,309.4 709.4,309.2 710.1,309.7 710.8,309.6 711.5,310.1 712.1,309.5 712.8,310.1 713.5,310.6 714.2,311.1 714.9,312.1 715.6,313.0 716.3,314.6 716.9,316.1 717.6,317.3 718.3,320.0 719.0,321.8 719.7,323.7 720.4,325.9 721.1,329.1 721.7,331.1 722.4,334.1 723.1,337.8 723.8,342.7 724.5,346.7 725.2,346.4 725.9,339.9 726.6,336.4 727.2,334.5 727.9,332.7 728.6,330.9 729.3,329.6 730.0,328.3 730.7,327.4 731.4,326.7 732.0,327.2 732.7,327.6 733.4,329.7 734.1,330.2 734.8,331.5 735.5,333.4 736.2,335.0 736.8,336.7 737.5,339.1 738.2,340.8 738.9,342.9 739.6,344.2 740.3,343.4 741.0,342.2 741.6,340.5 742.3,339.4 743.0,338.6 743.7,338.7 744.4,338.3 745.1,338.1 745.8,339.5 746.4,339.8 747.1,341.4 747.8,343.4 748.5,344.5 749.2,347.0 749.9,349.2 750.6,351.4 751.2,350.6 751.9,348.6 752.6,347.1 753.3,344.9 754.0,342.4 754.7,341.7 755.4,338.9 756.1,337.6 756.7,337.0 757.4,336.6 758.1,336.0 758.8,336.0 759.5,334.9 760.2,334.8 760.9,335.4 761.5,334.2 762.2,335.1 762.9,335.8 763.6,336.7 764.3,338.0 765.0,338.7 765.7,339.8 766.3,342.5 767.0,342.2 767.7,343.5 768.4,343.6 769.1,342.1 769.8,341.2 770.5,339.9 771.1,339.2 771.8,338.7 772.5,338.2 773.2,338.5 773.9,339.2 774.6,339.9 775.3,339.4 775.9,339.5 776.6,339.9 777.3,339.0 778.0,339.0 778.7,338.6 779.4,338.3 780.1,339.1 780.7,339.2 781.4,339.5 782.1,340.4 782.8,341.8 783.5,342.6 784.2,342.8 784.9,344.8 785.5,346.7 786.2,348.3 786.9,350.5 787.6,353.2 788.3,355.8 789.0,357.4 789.7,360.5 790.4,363.4 791.0,367.8 791.7,370.6 792.4,375.8 793.1,374.3 793.8,370.4 794.5,368.0 795.2,365.4 795.9,360.9 796.5,357.0 797.2,353.1 797.9,349.0 798.6,345.3 799.3,342.9 800.0,339.5 800.7,336.0 801.4,335.9 802.0,333.8 802.7,331.8 803.4,329.5 804.1,329.3 804.8,328.1 805.5,327.7 806.2,327.9 806.8,327.8 807.5,328.9 808.2,330.2 808.9,330.3 809.6,331.4 810.3,331.7 811.0,333.5 811.6,335.3 812.3,335.9 813.0,336.6 813.7,336.0 814.4,336.9 815.1,337.5 815.8,339.2 816.4,340.1 817.1,341.0 817.8,340.9 818.5,342.3 819.2,344.5 819.9,343.5 820.6,345.0 821.2,345.5 821.9,345.7 822.6,346.3 823.3,346.6 824.0,347.7 824.7,347.2 825.4,346.8 826.0,348.0 826.7,346.0 827.4,343.2 828.1,341.5 828.8,337.9 829.5,337.0 830.2,334.0 830.9,330.8 831.5,330.1 832.2,328.1 832.9,326.8 833.6,325.3 834.3,324.4 835.0,323.9 835.7,322.7 836.3,322.3 837.0,322.2 837.7,322.1 838.4,321.3 839.1,321.6 839.8,320.6 840.5,319.2 841.1,319.5 841.8,317.8 842.5,316.3 843.2,316.6 843.9,315.4 844.6,314.9 845.3,314.5 845.9,314.7 846.6,315.1 847.3,315.9 848.0,316.3 848.7,317.3 849.4,318.3 850.1,319.4 850.7,319.6 851.4,319.1 852.1,317.7 852.8,315.4 853.5,314.5 854.2,312.8 854.9,310.7 855.6,309.1 856.2,307.8 856.9,306.4 857.6,305.9 858.3,305.0 859.0,304.3 859.7,304.2 860.4,304.2 861.0,303.8 861.7,303.5 862.4,302.6 863.1,301.2 863.8,300.2 864.5,294.4 865.2,294.3 865.8,287.8 866.5,287.8 867.2,283.1 867.9,280.2 868.6,277.7 869.3,277.4 870.0,277.2 870.7,277.1 871.3,277.0 872.0,276.2 872.7,276.5 873.4,276.9 874.1,276.3 874.8,275.8 875.5,276.2 876.1,276.9 876.8,276.9 877.5,279.1 878.2,280.6 878.9,279.2 879.6,278.1 880.3,278.2 880.9,278.4 881.6,278.7 882.3,278.6 883.0,279.4 883.7,279.1 884.4,280.7 885.1,283.1 885.7,284.7 886.4,284.6 887.1,287.7 887.8,289.7 888.5,290.2 889.2,291.1 889.9,290.6 890.5,289.7 891.2,287.8 891.9,287.0 892.6,285.4 893.3,284.2 894.0,283.0 894.7,282.0 895.4,279.8 896.0,278.8 896.7,276.5 897.4,277.1 900.3,268.5 900.3,268.5 902.4,262.2 902.7,261.7 903.0,260.7 903.2,260.1 903.5,259.2 903.8,258.3 904.1,257.9 904.3,257.3 904.6,257.1 904.9,256.5 905.2,255.9 905.4,255.2 905.7,254.0 906.0,254.2 906.3,253.3 906.5,252.4 906.8,252.7 907.1,251.9 907.4,251.2 907.6,250.2 907.9,250.2 908.2,249.1 908.5,248.4 908.7,247.3 909.0,247.3 909.3,246.1 909.6,245.6 909.8,244.9 910.1,244.9 910.4,243.8 910.6,243.5 910.9,242.6 911.2,241.9 911.5,241.8 911.7,241.6 912.0,241.5 912.3,241.1 912.6,241.2 912.8,241.2 913.1,241.5 913.4,241.6 913.7,241.6 913.9,241.7 914.2,241.9 914.5,242.2 914.8,242.3 915.0,242.5 915.3,242.3 915.6,242.2 915.8,242.6 916.1,242.9 916.4,243.2 916.7,243.4 916.9,243.6 917.2,244.3 917.5,244.5 917.8,244.7 918.0,245.3 918.3,245.5 918.6,246.1 918.9,246.4 919.1,246.7 919.4,247.0 919.7,247.4 920.0,248.0 920.2,248.3 920.5,248.6 920.8,249.2 921.1,249.5 921.3,250.2 921.6,250.4 921.9,251.2 922.2,251.9 922.4,252.5 922.7,253.3 923.0,253.8 923.3,255.0 923.5,255.0 923.8,256.1 924.1,257.4 924.4,258.4 924.6,258.4 924.9,259.4 925.2,260.8 925.5,260.6 925.7,260.9 926.0,260.9 926.3,260.9 926.6,260.5 926.8,260.7 927.1,260.6 927.4,259.9 927.7,259.9 927.9,258.7 928.2,257.3 928.5,257.3 928.8,255.7 929.0,255.0 929.3,255.0 929.6,254.0 929.8,253.2 930.1,253.6 930.4,252.8 930.7,251.9 930.9,251.9 931.2,251.7 931.5,251.3 931.8,251.1 932.0,250.8 932.3,251.1 932.6,251.1 932.9,251.1 933.1,251.1 933.4,251.0 933.7,251.2 934.0,251.2 934.2,251.5 934.5,251.4 934.8,251.4 935.1,251.3 935.3,250.7 935.6,250.7 935.9,250.3 936.2,250.1 936.4,249.4 936.7,249.4 937.0,249.0 937.3,248.7 937.5,248.7 937.8,248.0 938.1,247.6 938.4,247.6 938.6,247.7 938.9,247.5 939.2,247.2 939.5,247.9 939.7,247.6 940.0,247.8 940.3,248.1 940.5,248.1 940.8,248.2 941.1,248.4 941.4,248.1 941.6,247.8 941.9,247.7 942.2,247.7 942.5,247.0 942.7,245.7 943.0,245.7 943.3,243.8 943.6,242.3 943.8,242.1 944.1,240.8 944.4,239.5 944.7,238.7 944.9,237.5 945.2,237.5 945.5,236.7 945.8,236.7 946.0,235.9 946.3,235.7 946.6,235.2 946.9,235.2 947.1,234.9 947.4,234.9 947.7,235.0 948.0,235.1 948.2,234.8 948.5,234.0 948.8,234.6 949.1,235.0 949.3,234.2 949.6,234.3 949.9,234.6 950.2,233.4 950.4,234.0 950.7,234.7 951.0,233.3 951.3,234.5 951.5,233.7 951.8,233.7 952.1,233.7 952.4,233.4 952.6,233.8 952.9,232.8 953.2,233.5 953.5,233.6 953.7,233.8 954.0,234.8 954.3,234.8 954.5,235.8 954.8,235.8 955.1,236.7 955.4,237.9 955.6,240.1 955.9,238.8 956.2,237.4 956.5,236.6 956.7,236.9 957.0,235.7 957.3,234.7 957.6,234.8 957.8,233.8 958.1,232.8 958.4,233.1 958.7,232.8 958.9,232.2 959.2,232.6 959.5,232.8 959.8,232.4 960.0,232.6 960.3,232.8 960.6,233.4 960.9,233.9 961.1,233.4 961.4,234.4 961.7,234.9 962.0,235.0 962.2,236.7 962.5,236.1 962.8,236.1 963.1,237.3 963.3,237.3 963.6,238.3 963.9,239.5 964.2,239.9 964.4,240.5 964.7,241.0 965.0,242.7 965.3,243.3 965.5,244.6 965.8,245.9 966.1,246.3 966.4,248.1 966.6,246.7 966.9,246.8 967.2,245.7 967.5,244.8 967.7,244.9 968.0,243.8 968.3,245.1 968.6,244.5 968.8,244.0 969.1,244.4 969.4,243.7 969.7,244.6 969.9,243.9 970.2,244.5 970.5,243.8 970.7,244.9 971.0,245.0 971.3,245.5 971.6,246.0 971.8,246.4 972.1,246.9 972.4,247.2 972.7,247.6 972.9,247.7 973.2,247.9 973.5,248.7 973.8,249.2 974.0,249.9 974.3,250.7 974.6,251.8 974.9,251.7 975.1,253.4 975.4,253.9 975.7,255.2 976.0,256.1 976.2,257.2 976.5,258.6 976.8,260.0 977.1,261.6 977.3,261.6 977.6,262.2 977.9,259.3 978.2,258.5 978.4,257.8 978.7,258.1 979.0,258.3 979.3,257.8 979.5,255.4 979.8,255.6 980.1,254.7 980.4,253.7 980.6,253.3 980.9,252.2 981.2,253.5 981.5,251.8 981.7,251.5 982.0,250.5 982.3,250.0 982.6,249.4 982.8,249.6 983.1,249.5 983.4,248.6 983.7,250.7 983.9,248.4 984.2,249.1 984.5,247.3 984.8,247.4 985.0,247.2 985.3,247.4 985.6,246.0 985.9,248.2 986.1,248.0 986.4,248.9 986.7,248.2 987.0,246.9 987.2,245.9 987.5,244.2 987.8,243.2 988.1,242.1 988.3,242.6 988.6,242.5 988.9,242.7 989.2,242.8 989.4,241.9 989.7,240.0 990.0,238.9 990.3,237.3 990.5,235.6 990.8,234.2 991.1,232.0 991.4,230.8 991.6,229.6 991.9,226.8 992.2,228.3 992.5,227.0 992.7,226.5 993.0,225.8 993.3,224.9 993.6,224.6 993.8,223.9 994.1,223.5 994.4,223.0 994.7,222.5 994.9,222.2 995.2,222.6 995.5,222.4 995.8,222.4 996.0,222.1 996.3,222.1 996.6,221.3 996.8,219.9 997.1,219.9 997.4,218.3 997.7,217.6 997.9,216.9 998.2,216.0 998.5,215.5 998.8,214.1 999.0,213.6 999.3,212.6 999.6,212.2 999.9,211.5 1000.1,211.1 1000.4,210.2 1000.7,210.3 1001.0,209.9 1001.2,208.7 1001.5,207.8 1001.8,206.2 1002.1,206.3 1002.3,204.5 1002.6,202.4 1002.9,201.0 1003.2,199.5 1003.4,198.8 1003.7,197.5 1004.0,195.1 1004.3,193.9 1004.5,192.1 1004.8,190.0 1005.1,188.8 1005.4,187.3 1005.6,186.4 1005.9,184.8 1006.2,184.2 1006.5,183.1 1006.7,182.2 1007.0,181.2 1007.3,180.9 1007.6,179.9 1007.8,179.9 1008.1,179.0 1008.4,178.3 1008.7,178.3 1008.9,177.7 1009.2,177.2 1009.5,176.8 1009.8,176.6 1010.0,176.3 1010.3,175.6 1010.6,175.4 1010.9,174.7 1011.1,175.0 1011.4,174.6 1011.7,174.1 1011.9,173.7 1012.2,173.2 1012.5,172.5 1012.8,172.6 1013.0,172.3 1013.3,171.7 1013.6,171.3 1013.9,171.2 1014.1,170.8 1014.4,170.4 1014.7,169.9 1015.0,169.7 1015.2,169.4 1015.5,168.9 1015.8,168.5 1016.1,167.7 1016.3,166.3 1016.6,166.1 1016.9,165.5 1017.2,164.3 1017.4,163.4 1017.7,162.8 1018.0,162.4 1018.3,162.2 1018.5,161.4 1018.8,160.7 1019.1,159.0 1019.4,158.8 1019.6,157.9 1019.9,156.9 1020.2,156.5 1020.5,155.4 1020.7,155.2 1021.0,154.3 1021.3,153.3 1021.6,152.4 1021.8,151.5 1022.1,150.7 1022.4,150.2 1022.7,149.3 1022.9,148.4 1023.2,148.0 1023.5,147.1 1023.8,146.2 1024.0,145.8 1024.3,145.3 1024.6,144.3 1024.9,143.4 1025.1,143.0 1025.4,141.9 1025.7,141.6 1026.0,140.9 1026.2,140.3 1026.5,139.8 1026.8,139.3 1027.0,138.5 1027.3,137.4 1027.5,136.6 1027.8,137.8 1028.1,137.8 1028.4,137.9 1028.6,136.4 1028.9,137.1 1029.2,136.3 1029.5,137.5 1029.7,137.4 1030.0,137.2 1030.3,137.3 1030.6,137.0 1030.8,137.5 1031.1,135.8 1031.4,136.8 1031.7,136.6 1031.9,137.5 1032.2,136.0 1032.5,136.5 1032.8,137.1 1033.0,136.5 1033.3,136.3 1033.6,135.8 1033.9,135.3 1034.1,135.1 1034.4,134.9 1034.7,134.5 1035.0,134.4 1035.2,134.5 1035.5,132.8 1035.8,132.8 1036.1,132.3 1036.3,131.7 1036.6,131.5 1036.9,131.1 1037.2,130.6 1037.4,130.2 1037.7,129.7 1038.0,129.5 1038.2,128.9 1038.5,128.7 1038.8,128.2 1039.1,127.5 1039.3,127.3 1039.6,126.8 1039.9,126.0 1040.2,126.0 1040.4,125.9 1040.7,125.6 1041.0,125.4 1041.3,124.9 1041.5,124.6 1041.8,124.4 1042.1,124.2 1042.4,123.9 1042.6,124.2 1042.9,124.1 1043.2,124.1 1043.5,123.8 1043.7,123.9 1044.0,124.2 1044.3,124.2 1044.6,124.3 1044.8,124.8 1045.1,124.8 1045.4,125.9 1045.7,125.6 1045.9,126.0 1046.2,126.2 1046.5,126.7 1046.8,127.1 1047.0,127.6 1047.3,127.8 1047.6,128.5 1047.9,129.1 1048.1,129.4 1048.4,130.4 1048.7,130.6 1048.9,131.3 1049.2,131.5 1049.5,132.3 1049.8,132.3 1050.0,133.0 1050.3,133.6 1050.6,133.7 1050.9,134.3 1051.1,134.5 1051.4,134.6 1051.7,135.1 1052.0,135.2 1052.2,134.9 1052.5,135.3 1052.8,135.6 1053.1,135.8 1053.3,135.6 1053.6,136.0 1053.9,135.9 1054.2,135.9 1054.4,135.6 1054.7,135.8 1055.0,135.3 1055.3,135.6 1055.5,135.0 1055.8,135.0 1056.1,134.7 1056.3,134.6 1056.6,134.5 1056.9,134.2 1057.2,134.2 1057.4,133.3 1057.7,133.4 1058.0,133.5 1058.3,133.3 1058.5,133.2 1058.8,133.0 1059.1,132.6 1059.4,132.5 1059.6,132.3 1059.9,132.0 1060.2,131.3 1060.5,131.1 1060.7,131.3 1061.0,131.4 1061.3,130.9 1061.6,130.8 1061.8,131.0 1062.1,130.9 1062.4,130.9 1062.7,130.8 1062.9,131.1 1063.2,131.4 1063.5,131.4 1063.8,132.1 1064.0,132.1 1064.3,132.3 1064.6,132.9 1064.9,132.4 1065.1,133.1 1065.4,133.1 1065.7,133.6 1066.0,133.6 1066.2,134.3 1066.5,134.6 1066.8,135.8 1067.0,136.2 1067.3,135.8 1067.6,137.5 1067.9,138.7 1068.1,139.0 1068.4,140.1 1068.7,141.1 1069.0,142.7 1069.2,143.2 1069.5,145.7 1069.8,145.7 1070.1,149.8 1070.4,150.0 1070.6,153.7 1070.9,153.6 1071.2,153.6 1071.5,159.0 1071.7,159.0 1072.0,159.4 1072.3,160.2 1072.6,160.2 1072.8,160.7 1073.1,161.8 1073.4,161.8 1073.7,162.0 1073.9,163.9 1074.2,163.0 1074.5,164.4 1074.8,166.7 1075.0,168.0 1075.3,169.8 1075.6,171.4 1075.9,170.0 1076.1,168.3 1076.4,165.8 1076.7,165.7 1077.0,162.6 1077.2,161.9 1077.5,160.3 1077.8,157.5 1078.1,158.7 1078.3,159.4 1078.6,159.7 1078.9,159.2 1079.2,159.9 1079.4,160.9 1079.7,158.8 1080.0,161.2 1080.3,160.0 1080.5,161.8 1080.8,163.9 1081.1,164.3 1081.4,168.8 1081.6,165.6 1081.9,160.6 1082.2,157.6 1082.5,155.6 1082.8,152.3 1083.0,151.9 1083.3,147.6 1083.6,145.1 1083.9,142.3 1084.1,142.3 1084.4,137.6 1084.7,135.3 1085.0,134.7 1085.3,132.7 1085.5,130.7 1085.8,128.3 1086.1,127.6 1086.3,127.7 1086.6,127.2 1086.9,126.3 1087.2,126.0 1087.4,126.0 1087.7,126.0 1088.0,125.5 1088.3,125.4 1088.5,125.4 1088.8,125.8 1089.1,125.4 1089.4,125.7 1089.6,125.1 1089.9,125.1 1090.2,125.0 1090.5,124.9 1090.7,125.0 1091.0,124.6 1091.3,124.6 1091.6,124.5 1091.8,124.1 1092.1,123.4 1092.4,123.0 1092.7,123.0 1092.9,122.8 1093.2,122.6 1093.5,121.5 1093.8,121.6 1094.0,121.3 1094.3,120.7 1094.6,120.4 1094.8,119.8 1095.1,118.9 1095.4,118.7 1095.7,118.5 1095.9,118.2 1096.2,118.0 1096.5,118.0 1096.8,116.7 1097.0,116.0 1097.3,115.9 1097.6,115.6 1097.9,114.5 1098.1,113.4 1098.4,112.5 1098.7,111.6 1099.0,111.4 1099.2,110.8 1099.5,110.4 1099.8,110.2 1100.1,110.0 1100.3,109.9 1100.6,110.1 1100.9,111.0 1101.2,112.0 1101.4,112.0 1101.7,113.4 1102.0,113.3 1102.3,114.5 1102.5,114.5 1102.8,115.1 1103.1,116.0 1103.4,116.3 1103.6,117.5 1103.9,117.8 1104.2,118.7 1104.5,119.3 1104.7,119.8 1105.0,120.4 1105.3,121.1 1105.6,121.8 1105.8,122.4 1106.1,122.6 1106.4,123.4 1106.7,123.9 1106.9,124.3 1107.2,124.6 1107.5,124.3 1107.8,124.3 1108.0,126.1 1108.3,126.4 1108.6,127.0 1108.9,127.3 1109.1,127.3 1109.4,127.7 1109.7,127.8 1110.0,128.1 1110.2,127.9 1110.5,128.8 1110.8,127.8 1111.1,128.6 1111.3,129.1 1111.6,129.1 1111.9,129.3 1112.1,129.8 1112.4,129.7 1112.7,129.8 1113.0,130.0 1113.2,130.0 1113.5,130.1 1113.8,130.0 1114.1,130.1 1114.3,130.2 1114.6,131.1 1114.9,131.1 1115.2,131.5 1115.4,131.5 1115.7,131.6 1116.0,131.9 1116.3,132.5 1116.5,132.9 1116.8,132.9 1117.1,133.1 1117.4,133.1 1117.6,133.8 1117.9,133.8 1118.2,134.4 1118.5,134.4 1118.7,135.0 1119.0,135.0 1119.3,135.2 1119.6,135.2 1119.8,135.9 1120.1,135.9 1120.4,136.1 1120.7,136.3 1120.9,136.7 1121.2,136.7 1121.5,137.0 1121.8,137.1 1122.0,136.7 1122.3,137.1 1122.6,137.3 1122.8,137.5 1123.1,138.1 1123.4,138.1 1123.7,138.2 1123.9,138.3 1124.2,138.5 1124.5,138.6 1124.8,138.6 1125.0,139.1 1125.3,139.1 1125.6,138.9 1125.9,139.0 1126.1,139.0 1126.4,138.4 1126.7,138.2 1127.0,138.0 1127.2,137.7 1127.5,137.7 1127.8,135.6 1128.1,135.2 1128.3,133.8 1128.6,134.3 1128.9,133.2 1129.2,132.8 1129.4,132.2 1129.7,131.5 1130.0,131.5 1130.3,131.0 1130.5,131.0 1130.8,129.0 1131.1,128.6 1131.4,127.1 1131.6,126.3 1131.9,125.9 1132.2,124.9 1132.5,124.4 1132.7,124.3 1133.0,123.4 1133.3,123.8 1133.6,122.8 1133.8,122.3 1134.1,122.6 1134.4,122.0 1134.7,122.1 1134.9,122.2 1135.2,122.1 1135.5,122.1 1135.8,122.8 1136.0,122.0 1136.3,123.6 1136.6,123.6 1136.9,124.7 1137.1,124.7 1137.4,125.0 1137.7,125.8 1137.9,125.5 1138.2,125.6 1138.5,125.3 1138.8,125.3 1139.0,125.4 1139.3,125.2 1139.6,124.7 1139.9,124.8 1140.1,124.8 1140.4,124.5 1140.7,124.7 1141.0,124.8 1141.2,124.6 1141.5,124.7 1141.8,124.4 1142.1,124.0 1142.3,124.3 1142.6,124.0 1142.9,124.3 1143.2,124.4 1143.4,124.4 1143.7,124.4 1144.0,124.6 1144.3,124.0 1144.5,124.8 1144.8,124.8 1145.1,124.8 1145.4,124.1 1145.6,124.2 1145.9,125.5 1146.2,125.0 1146.5,124.4 1146.7,123.8 1147.0,123.7 1147.3,124.3 1147.6,124.3 1147.8,124.3 1148.1,123.6 1148.4,124.3 1148.7,123.5 1148.9,123.2 1149.2,123.3 1149.5,123.1 1149.8,122.8 1150.0,123.1 1150.3,122.6 1150.6,122.9 1150.9,122.6 1151.1,122.5 1151.4,122.5 1151.7,122.5 1152.0,122.7 1152.2,122.7 1152.5,123.1 1152.8,123.4 1153.0,123.4 1153.3,123.4 1153.6,123.1 1153.9,123.1 1154.1,123.3 1154.4,123.9 1154.7,124.1 1155.0,124.3 1155.2,124.7 1155.5,123.5 1155.8,124.0 1156.1,125.4 1156.3,125.3 1156.6,125.1 1156.9,125.9 1157.2,126.9 1157.4,126.9 1157.7,126.8 1158.0,126.8 1158.3,127.0 1158.5,128.1 1158.8,127.0 1159.1,128.8 1159.4,128.9 1159.6,129.6 1159.9,129.4 1160.2,129.5 1160.5,129.4 1160.7,129.9 1161.0,129.7 1161.3,129.8 1161.6,129.6 1161.8,130.1 1162.1,129.5 1162.4,129.5 1162.7,128.9 1162.9,128.6 1163.2,128.3 1163.5,128.1 1163.8,127.7 1164.0,127.6 1164.3,126.3 1164.6,126.2 1164.9,125.7 1165.1,124.7 1165.4,124.2 1165.7,123.4 1166.0,123.3 1166.2,122.7 1166.5,122.5 1166.8,122.2 1167.1,122.0 1167.3,121.6 1167.6,121.6 1167.9,121.6 1168.2,121.4 1168.4,121.2 1168.7,121.9 1168.9,121.9 1168.9,121.9 1169.2,121.1 1169.5,121.0 1169.5,121.0 1170.0,121.9 1170.0,500.0" fill="#d9c9a8" fill-opacity="0.55" stroke="none"/>
<polyline points="80.0,468.8 81.4,469.0 81.4,462.9 81.8,462.9 81.8,462.9 83.6,462.9 84.2,462.8 84.9,462.7 85.6,462.6 86.3,462.5 87.0,461.4 87.7,460.3 88.4,458.5 89.1,457.5 89.7,456.2 90.4,456.7 91.1,456.3 91.8,456.3 92.5,456.2 93.1,456.5 93.8,456.6 94.5,456.8 95.2,457.1 95.9,456.7 96.6,456.5 96.6,456.5 97.3,455.4 97.9,454.5 98.6,453.3 99.3,452.2 100.0,451.4 100.7,449.7 101.4,448.5 102.1,446.8 102.8,445.0 103.4,444.0 104.1,442.1 104.8,440.6 105.5,439.5 106.2,438.4 106.9,437.6 107.6,437.2 108.2,437.1 108.9,437.5 109.6,437.7 110.3,438.3 111.0,438.9 111.7,439.7 112.4,440.0 113.0,440.3 113.7,439.6 114.4,438.5 115.1,437.7 115.8,436.3 116.5,434.9 117.2,433.1 117.8,431.1 118.5,429.8 119.2,429.0 119.9,428.1 120.6,427.2 121.3,426.6 122.0,425.4 122.5,424.1 123.1,424.0 123.8,425.7 124.5,425.1 125.2,423.7 125.9,422.3 126.6,420.6 127.3,421.5 128.7,421.3 129.3,421.8 130.0,424.8 130.7,424.6 131.4,424.1 132.1,424.0 132.6,424.9 133.3,424.0 134.0,423.6 134.7,422.5 135.3,421.9 136.0,421.0 136.7,420.8 137.4,420.1 138.1,419.9 138.8,419.1 139.5,418.4 140.2,417.4 140.8,416.8 141.5,416.2 142.2,415.3 142.9,414.7 143.6,414.2 144.3,413.3 145.0,412.9 145.6,412.4 146.3,412.0 147.0,412.1 147.7,412.4 148.4,412.9 149.1,413.4 149.7,414.3 150.4,414.9 151.1,415.9 151.8,416.8 152.5,417.7 153.2,418.2 153.9,419.4 154.5,420.3 155.2,421.0 155.9,422.1 156.6,422.7 157.3,423.2 158.0,423.1 158.7,423.3 159.3,423.2 160.0,422.9 160.7,422.9 161.4,422.7 162.1,422.4 162.8,421.2 163.5,422.0 164.1,422.0 164.8,421.9 165.5,421.6 166.2,421.2 166.9,420.8 167.6,420.3 168.3,419.9 168.9,419.5 169.6,418.7 170.3,418.1 171.0,417.4 171.7,417.0 172.4,416.3 173.1,415.8 173.7,415.3 174.4,414.6 175.1,413.8 175.8,413.5 176.5,412.5 177.2,412.3 177.9,411.4 178.6,410.9 179.2,409.1 179.9,409.6 180.6,409.0 181.3,408.2 182.0,407.5 182.7,407.2 183.4,406.4 184.0,405.8 184.7,405.4 185.4,405.0 186.1,404.3 186.8,404.2 187.5,404.3 188.2,403.4 188.8,403.5 189.5,403.0 190.2,402.6 190.9,402.5 191.6,402.5 192.3,402.4 193.0,402.9 193.6,402.7 194.3,402.5 195.0,402.7 195.7,402.5 196.4,403.3 197.1,402.7 197.8,402.6 198.4,402.0 199.1,401.4 199.8,401.2 200.5,400.4 201.2,400.3 201.9,400.0 202.6,399.3 203.2,399.4 203.9,399.0 204.6,399.0 205.3,398.7 206.0,398.9 206.7,398.6 207.4,397.7 208.0,397.7 208.7,398.3 209.4,398.3 210.1,398.4 210.8,398.1 211.5,397.9 212.2,398.9 212.8,399.2 213.5,399.6 214.2,399.8 214.9,400.0 215.6,399.6 216.3,400.2 217.0,400.2 217.6,399.9 218.3,400.0 219.0,399.5 219.7,399.1 220.4,398.3 221.1,397.6 221.8,397.5 222.4,397.6 223.1,397.3 223.8,397.0 224.5,396.7 225.2,396.8 225.9,396.9 226.6,397.1 227.2,396.9 227.9,397.8 228.6,398.2 229.3,397.9 230.0,398.8 230.7,399.1 231.4,399.3 232.0,399.4 232.7,399.6 233.4,400.1 234.1,400.4 234.8,400.1 235.5,401.4 236.2,401.3 236.8,401.6 237.5,402.4 238.2,402.7 238.9,403.1 239.6,402.8 240.3,403.9 241.0,404.2 241.7,404.4 242.3,404.6 243.0,405.9 243.7,405.9 244.4,405.9 245.1,406.9 245.8,407.5 246.5,407.6 247.1,407.9 247.8,407.9 248.5,408.2 249.2,408.3 249.9,408.6 250.6,409.0 251.3,410.9 251.9,411.4 252.6,410.3 253.3,410.5 254.0,411.0 254.7,409.8 255.4,408.8 256.1,408.7 256.7,409.0 257.4,409.1 258.1,408.5 258.8,408.2 259.5,409.0 260.2,408.5 260.9,405.7 261.5,404.4 262.2,402.9 262.9,401.8 263.6,401.0 264.3,399.3 265.0,397.9 265.7,397.0 266.3,395.4 267.0,394.7 267.7,393.5 268.4,392.1 269.1,390.6 269.8,389.6 270.5,388.3 271.1,387.6 271.8,386.7 272.5,386.1 273.2,384.7 273.9,384.5 274.6,383.8 275.3,383.5 275.9,383.3 276.6,383.3 277.3,383.3 278.0,383.8 278.7,383.9 279.4,384.2 280.1,384.2 280.7,384.8 281.4,385.0 282.1,385.3 282.8,385.5 283.5,385.7 284.2,385.6 284.9,385.5 285.5,385.2 286.2,385.2 286.9,384.5 287.6,384.4 288.3,384.2 289.0,384.0 289.7,383.8 290.4,383.2 291.0,382.7 291.7,382.1 292.4,382.0 293.1,381.2 293.8,380.6 294.5,380.3 295.2,379.8 295.8,379.1 296.5,378.7 297.2,378.5 297.9,378.0 298.6,377.9 299.3,377.5 300.0,377.8 300.6,377.3 301.3,377.1 302.0,376.9 302.7,376.8 303.4,376.2 304.1,376.5 304.8,376.5 305.4,376.0 306.1,375.8 306.8,375.8 307.5,375.9 308.2,375.6 308.9,375.5 309.6,374.8 310.2,375.5 310.9,375.4 311.6,374.9 312.3,375.1 313.0,374.6 313.7,374.6 314.4,374.5 315.0,374.1 315.7,374.0 316.4,373.9 317.1,373.6 317.8,373.8 318.5,373.7 319.2,373.6 319.8,373.7 320.5,374.3 321.2,374.3 321.9,375.1 322.6,375.4 323.3,375.8 324.0,375.9 324.6,376.4 325.3,375.7 326.0,375.3 326.7,373.8 327.4,374.4 328.1,373.4 328.8,372.2 329.4,371.3 330.1,370.0 330.8,370.2 331.5,369.5 332.2,368.8 332.9,368.9 333.6,368.4 334.2,368.1 334.9,367.9 335.6,367.2 336.3,366.8 337.0,365.7 337.7,365.6 338.4,364.7 339.0,364.0 339.7,363.5 340.4,362.5 341.1,361.3 341.8,359.3 342.5,359.1 343.2,357.8 343.8,356.7 344.5,357.2 345.2,356.6 345.9,356.0 346.6,355.2 347.3,354.5 348.0,353.4 348.7,352.1 349.3,351.5 350.0,349.7 350.7,348.7 351.4,348.3 352.1,347.7 352.7,346.7 353.4,343.1 354.1,339.0 354.7,335.3 355.4,331.0 356.1,324.2 356.8,315.5 357.5,301.9 362.8,175.7 363.1,175.2 363.3,172.9 363.6,171.9 363.8,171.8 364.2,175.1 364.6,171.9 365.3,165.7 366.0,159.9 366.3,158.6 366.3,158.6 368.7,244.2 369.4,268.9 370.1,286.7 370.8,301.9 371.5,315.0 372.2,322.9 372.9,328.7 373.6,335.1 374.3,338.9 375.0,343.1 375.7,346.3 376.2,345.7 376.9,344.6 377.6,343.7 378.3,343.0 378.9,343.0 379.6,345.5 380.2,348.8 380.8,350.6 381.5,353.1 382.2,354.3 382.9,356.0 383.6,357.9 384.3,359.1 385.0,360.3 385.7,361.6 386.3,362.8 387.0,364.6 387.7,365.7 388.4,367.1 389.1,367.5 389.8,368.7 390.5,369.5 391.1,369.8 391.8,369.1 392.5,370.5 393.2,370.3 393.9,370.2 394.6,370.0 395.3,370.2 395.9,370.3 396.6,369.4 397.3,369.4 398.0,368.4 398.7,367.7 399.4,367.2 400.1,366.6 400.7,366.6 401.4,366.3 402.1,366.0 402.8,366.5 403.5,366.7 404.2,367.4 404.9,366.9 405.5,368.0 406.2,368.6 406.9,368.1 407.6,367.8 408.2,368.0 408.9,368.0 409.6,368.1 410.3,367.8 411.0,367.8 411.7,367.6 412.4,367.4 413.0,366.8 413.7,366.6 414.4,366.2 415.1,366.1 415.8,365.8 416.5,365.7 417.2,365.4 417.8,365.0 418.5,364.9 419.2,364.3 419.9,363.9 420.6,363.3 421.3,362.7 422.0,361.8 422.6,361.4 423.3,360.7 424.0,359.8 424.7,359.3 425.4,359.2 426.1,358.8 426.8,356.9 427.4,357.8 428.1,357.2 428.8,356.7 429.5,355.8 430.2,354.7 430.9,353.7 431.6,352.6 432.2,351.6 432.9,350.4 433.6,348.8 434.3,347.2 435.0,345.4 435.7,344.3 436.4,342.6 437.1,341.3 437.7,340.1 438.4,340.1 439.1,340.8 439.8,341.1 440.5,342.3 441.2,344.0 441.9,343.7 442.5,344.8 443.2,345.0 443.9,345.0 444.6,345.1 445.3,344.6 446.0,344.3 446.7,343.9 447.3,342.3 448.0,342.4 448.7,342.2 449.4,341.2 450.1,339.8 450.8,340.2 451.5,339.1 452.1,338.3 452.8,336.6 453.5,335.6 454.2,334.7 454.9,333.4 455.6,330.9 456.3,331.0 456.9,329.1 457.6,327.5 458.3,326.7 459.0,323.6 459.7,325.4 460.4,324.3 461.1,323.8 461.7,323.1 462.4,322.0 463.1,322.0 463.8,321.1 464.5,319.5 465.2,319.2 465.9,318.1 466.6,318.5 467.2,317.8 467.9,317.9 468.6,317.6 469.3,317.0 470.0,316.4 470.7,315.7 471.4,315.5 472.0,313.2 472.7,311.0 473.4,309.9 474.1,307.4 474.8,304.2 475.4,304.0 476.1,304.4 476.8,304.4 477.5,304.2 478.2,305.1 478.9,306.5 479.6,307.4 480.2,307.7 480.9,307.8 481.6,307.6 482.3,307.5 483.0,307.3 483.7,306.0 484.4,305.1 485.0,303.7 485.7,302.6 486.4,302.1 487.1,301.3 487.8,301.6 488.5,301.8 489.2,303.1 489.8,304.5 490.5,306.3 491.2,308.2 491.9,310.2 492.6,312.0 493.3,314.5 494.0,316.0 494.6,316.7 495.3,317.5 496.0,318.7 496.7,318.5 497.4,318.7 498.1,318.8 498.8,318.4 499.4,318.5 500.1,318.2 500.8,318.9 501.5,319.0 502.2,318.7 502.9,319.3 503.6,319.0 504.3,318.8 504.9,318.5 505.6,317.7 506.3,317.1 507.0,316.9 507.7,316.2 508.4,315.3 509.1,315.1 509.7,314.5 510.4,314.5 511.1,314.9 511.8,315.9 512.5,316.7 513.2,318.1 513.9,319.2 514.5,320.5 515.2,322.2 515.9,323.7 516.6,325.4 517.3,326.0 518.0,328.2 518.7,328.9 519.3,332.8 520.0,330.2 520.7,329.5 521.4,329.4 522.1,328.9 522.8,329.3 523.5,327.7 524.1,327.7 524.8,327.5 525.5,327.6 526.2,328.3 526.9,328.7 527.6,329.3 528.3,328.4 528.9,329.6 529.6,329.7 530.3,329.2 531.0,330.1 531.7,330.7 532.4,331.6 533.1,332.8 533.7,334.2 534.4,336.5 535.1,338.3 535.8,334.4 536.5,332.2 537.2,329.7 537.9,327.1 538.6,324.6 539.2,321.8 539.9,320.4 540.6,318.2 541.3,316.5 542.0,314.6 542.7,313.2 543.4,311.9 544.0,311.3 544.7,310.8 545.4,311.0 546.1,311.7 546.8,312.3 547.5,314.6 548.2,316.2 548.8,318.8 549.5,320.3 550.2,322.9 550.9,326.1 551.6,327.8 552.3,330.1 553.0,332.0 553.7,334.2 554.3,336.2 555.0,340.6 555.7,343.1 556.4,339.4 557.1,337.0 557.8,335.5 558.5,333.5 559.1,331.1 559.8,330.0 560.5,327.6 561.2,325.1 561.9,322.9 562.6,320.1 563.3,317.9 564.0,315.9 564.6,314.1 565.3,312.1 566.0,310.6 566.7,309.3 567.4,308.8 568.1,308.6 568.8,308.6 569.4,309.4 570.1,310.0 570.8,309.6 571.5,311.4 572.2,311.5 572.9,310.5 573.6,309.4 574.2,308.7 574.9,307.2 575.6,306.0 576.3,305.4 577.0,304.0 577.7,304.0 578.4,303.3 579.0,300.9 579.7,299.6 580.4,297.5 581.1,296.7 581.8,294.7 582.5,293.6 583.2,292.4 583.8,291.3 584.5,290.5 585.2,290.1 585.9,289.4 586.6,289.0 587.3,286.1 588.0,283.9 588.7,281.4 589.3,278.3 590.0,276.6 590.7,274.0 591.4,272.2 592.1,270.8 592.8,269.0 593.5,267.7 594.1,266.4 594.8,266.3 595.5,266.4 596.2,267.6 596.9,268.4 597.6,269.3 598.3,270.8 598.9,271.0 599.6,271.2 600.3,271.3 601.0,271.4 601.7,271.3 602.4,271.3 603.1,269.9 603.7,269.1 604.4,268.6 605.1,267.4 605.8,267.4 606.5,266.8 607.2,266.4 607.9,265.9 608.5,265.7 609.2,265.9 609.9,266.5 610.6,267.0 611.3,267.3 612.0,267.3 612.7,269.2 613.3,269.4 614.0,269.9 614.7,271.8 615.4,270.7 616.1,274.8 616.8,274.6 617.5,274.6 618.2,274.9 618.8,274.2 619.5,272.6 620.2,269.3 620.9,268.6 621.6,267.8 622.3,266.0 622.9,265.1 623.6,264.3 624.3,262.8 625.0,262.0 625.7,261.5 626.4,260.7 627.1,259.3 627.7,258.5 628.4,258.3 629.1,257.3 629.8,256.7 630.5,255.9 631.2,255.6 631.9,254.9 632.5,254.8 633.2,254.7 633.9,254.8 634.6,254.8 635.3,255.3 636.0,255.4 636.7,256.6 637.3,257.8 638.0,257.8 638.7,259.0 639.4,259.9 640.1,259.7 640.8,260.2 641.5,261.5 642.1,261.5 642.8,261.9 643.5,262.2 644.2,261.9 644.9,263.6 645.6,264.5 646.3,265.7 646.9,265.9 647.6,267.6 648.3,270.4 649.0,270.6 649.7,272.3 650.4,272.7 651.1,277.4 651.8,277.7 652.4,280.7 653.1,283.8 653.8,286.0 654.5,287.8 655.2,290.3 655.9,293.2 656.6,294.8 657.2,298.2 657.9,300.2 658.6,302.7 659.3,304.9 660.0,307.0 660.7,309.5 661.4,311.1 662.1,313.1 662.7,316.9 663.4,315.8 664.1,314.4 664.8,313.7 665.5,311.1 666.2,310.1 666.9,307.5 667.5,306.0 668.2,304.3 668.9,302.5 669.6,301.2 670.3,300.3 671.0,298.9 671.7,298.0 672.3,296.6 673.0,295.3 673.7,294.8 674.4,294.0 675.1,293.1 675.8,292.9 676.5,292.5 677.1,292.1 677.8,291.8 678.5,292.4 679.2,292.3 679.9,292.6 680.6,292.7 681.3,292.9 681.9,293.3 682.6,293.4 683.3,293.8 684.0,294.1 684.7,294.5 685.4,295.9 686.1,296.7 686.8,297.6 687.4,299.3 688.1,300.6 688.8,301.8 689.5,304.4 690.2,305.8 690.9,307.5 691.6,309.1 692.2,310.8 692.9,312.4 693.6,312.5 694.3,314.7 695.0,316.3 695.7,318.0 696.4,319.1 697.0,321.1 697.7,322.8 698.4,324.6 699.1,326.2 699.8,326.1 700.5,326.3 701.2,325.3 701.8,323.6 702.5,321.3 703.2,319.7 703.9,317.6 704.6,315.9 705.3,314.0 706.0,313.1 706.6,311.4 707.3,310.8 708.0,310.1 708.7,309.4 709.4,309.2 710.1,309.7 710.8,309.6 711.5,310.1 712.1,309.5 712.8,310.1 713.5,310.6 714.2,311.1 714.9,312.1 715.6,313.0 716.3,314.6 716.9,316.1 717.6,317.3 718.3,320.0 719.0,321.8 719.7,323.7 720.4,325.9 721.1,329.1 721.7,331.1 722.4,334.1 723.1,337.8 723.8,342.7 724.5,346.7 725.2,346.4 725.9,339.9 726.6,336.4 727.2,334.5 727.9,332.7 728.6,330.9 729.3,329.6 730.0,328.3 730.7,327.4 731.4,326.7 732.0,327.2 732.7,327.6 733.4,329.7 734.1,330.2 734.8,331.5 735.5,333.4 736.2,335.0 736.8,336.7 737.5,339.1 738.2,340.8 738.9,342.9 739.6,344.2 740.3,343.4 741.0,342.2 741.6,340.5 742.3,339.4 743.0,338.6 743.7,338.7 744.4,338.3 745.1,338.1 745.8,339.5 746.4,339.8 747.1,341.4 747.8,343.4 748.5,344.5 749.2,347.0 749.9,349.2 750.6,351.4 751.2,350.6 751.9,348.6 752.6,347.1 753.3,344.9 754.0,342.4 754.7,341.7 755.4,338.9 756.1,337.6 756.7,337.0 757.4,336.6 758.1,336.0 758.8,336.0 759.5,334.9 760.2,334.8 760.9,335.4 761.5,334.2 762.2,335.1 762.9,335.8 763.6,336.7 764.3,338.0 765.0,338.7 765.7,339.8 766.3,342.5 767.0,342.2 767.7,343.5 768.4,343.6 769.1,342.1 769.8,341.2 770.5,339.9 771.1,339.2 771.8,338.7 772.5,338.2 773.2,338.5 773.9,339.2 774.6,339.9 775.3,339.4 775.9,339.5 776.6,339.9 777.3,339.0 778.0,339.0 778.7,338.6 779.4,338.3 780.1,339.1 780.7,339.2 781.4,339.5 782.1,340.4 782.8,341.8 783.5,342.6 784.2,342.8 784.9,344.8 785.5,346.7 786.2,348.3 786.9,350.5 787.6,353.2 788.3,355.8 789.0,357.4 789.7,360.5 790.4,363.4 791.0,367.8 791.7,370.6 792.4,375.8 793.1,374.3 793.8,370.4 794.5,368.0 795.2,365.4 795.9,360.9 796.5,357.0 797.2,353.1 797.9,349.0 798.6,345.3 799.3,342.9 800.0,339.5 800.7,336.0 801.4,335.9 802.0,333.8 802.7,331.8 803.4,329.5 804.1,329.3 804.8,328.1 805.5,327.7 806.2,327.9 806.8,327.8 807.5,328.9 808.2,330.2 808.9,330.3 809.6,331.4 810.3,331.7 811.0,333.5 811.6,335.3 812.3,335.9 813.0,336.6 813.7,336.0 814.4,336.9 815.1,337.5 815.8,339.2 816.4,340.1 817.1,341.0 817.8,340.9 818.5,342.3 819.2,344.5 819.9,343.5 820.6,345.0 821.2,345.5 821.9,345.7 822.6,346.3 823.3,346.6 824.0,347.7 824.7,347.2 825.4,346.8 826.0,348.0 826.7,346.0 827.4,343.2 828.1,341.5 828.8,337.9 829.5,337.0 830.2,334.0 830.9,330.8 831.5,330.1 832.2,328.1 832.9,326.8 833.6,325.3 834.3,324.4 835.0,323.9 835.7,322.7 836.3,322.3 837.0,322.2 837.7,322.1 838.4,321.3 839.1,321.6 839.8,320.6 840.5,319.2 841.1,319.5 841.8,317.8 842.5,316.3 843.2,316.6 843.9,315.4 844.6,314.9 845.3,314.5 845.9,314.7 846.6,315.1 847.3,315.9 848.0,316.3 848.7,317.3 849.4,318.3 850.1,319.4 850.7,319.6 851.4,319.1 852.1,317.7 852.8,315.4 853.5,314.5 854.2,312.8 854.9,310.7 855.6,309.1 856.2,307.8 856.9,306.4 857.6,305.9 858.3,305.0 859.0,304.3 859.7,304.2 860.4,304.2 861.0,303.8 861.7,303.5 862.4,302.6 863.1,301.2 863.8,300.2 864.5,294.4 865.2,294.3 865.8,287.8 866.5,287.8 867.2,283.1 867.9,280.2 868.6,277.7 869.3,277.4 870.0,277.2 870.7,277.1 871.3,277.0 872.0,276.2 872.7,276.5 873.4,276.9 874.1,276.3 874.8,275.8 875.5,276.2 876.1,276.9 876.8,276.9 877.5,279.1 878.2,280.6 878.9,279.2 879.6,278.1 880.3,278.2 880.9,278.4 881.6,278.7 882.3,278.6 883.0,279.4 883.7,279.1 884.4,280.7 885.1,283.1 885.7,284.7 886.4,284.6 887.1,287.7 887.8,289.7 888.5,290.2 889.2,291.1 889.9,290.6 890.5,289.7 891.2,287.8 891.9,287.0 892.6,285.4 893.3,284.2 894.0,283.0 894.7,282.0 895.4,279.8 896.0,278.8 896.7,276.5 897.4,277.1 900.3,268.5 900.3,268.5 902.4,262.2 902.7,261.7 903.0,260.7 903.2,260.1 903.5,259.2 903.8,258.3 904.1,257.9 904.3,257.3 904.6,257.1 904.9,256.5 905.2,255.9 905.4,255.2 905.7,254.0 906.0,254.2 906.3,253.3 906.5,252.4 906.8,252.7 907.1,251.9 907.4,251.2 907.6,250.2 907.9,250.2 908.2,249.1 908.5,248.4 908.7,247.3 909.0,247.3 909.3,246.1 909.6,245.6 909.8,244.9 910.1,244.9 910.4,243.8 910.6,243.5 910.9,242.6 911.2,241.9 911.5,241.8 911.7,241.6 912.0,241.5 912.3,241.1 912.6,241.2 912.8,241.2 913.1,241.5 913.4,241.6 913.7,241.6 913.9,241.7 914.2,241.9 914.5,242.2 914.8,242.3 915.0,242.5 915.3,242.3 915.6,242.2 915.8,242.6 916.1,242.9 916.4,243.2 916.7,243.4 916.9,243.6 917.2,244.3 917.5,244.5 917.8,244.7 918.0,245.3 918.3,245.5 918.6,246.1 918.9,246.4 919.1,246.7 919.4,247.0 919.7,247.4 920.0,248.0 920.2,248.3 920.5,248.6 920.8,249.2 921.1,249.5 921.3,250.2 921.6,250.4 921.9,251.2 922.2,251.9 922.4,252.5 922.7,253.3 923.0,253.8 923.3,255.0 923.5,255.0 923.8,256.1 924.1,257.4 924.4,258.4 924.6,258.4 924.9,259.4 925.2,260.8 925.5,260.6 925.7,260.9 926.0,260.9 926.3,260.9 926.6,260.5 926.8,260.7 927.1,260.6 927.4,259.9 927.7,259.9 927.9,258.7 928.2,257.3 928.5,257.3 928.8,255.7 929.0,255.0 929.3,255.0 929.6,254.0 929.8,253.2 930.1,253.6 930.4,252.8 930.7,251.9 930.9,251.9 931.2,251.7 931.5,251.3 931.8,251.1 932.0,250.8 932.3,251.1 932.6,251.1 932.9,251.1 933.1,251.1 933.4,251.0 933.7,251.2 934.0,251.2 934.2,251.5 934.5,251.4 934.8,251.4 935.1,251.3 935.3,250.7 935.6,250.7 935.9,250.3 936.2,250.1 936.4,249.4 936.7,249.4 937.0,249.0 937.3,248.7 937.5,248.7 937.8,248.0 938.1,247.6 938.4,247.6 938.6,247.7 938.9,247.5 939.2,247.2 939.5,247.9 939.7,247.6 940.0,247.8 940.3,248.1 940.5,248.1 940.8,248.2 941.1,248.4 941.4,248.1 941.6,247.8 941.9,247.7 942.2,247.7 942.5,247.0 942.7,245.7 943.0,245.7 943.3,243.8 943.6,242.3 943.8,242.1 944.1,240.8 944.4,239.5 944.7,238.7 944.9,237.5 945.2,237.5 945.5,236.7 945.8,236.7 946.0,235.9 946.3,235.7 946.6,235.2 946.9,235.2 947.1,234.9 947.4,234.9 947.7,235.0 948.0,235.1 948.2,234.8 948.5,234.0 948.8,234.6 949.1,235.0 949.3,234.2 949.6,234.3 949.9,234.6 950.2,233.4 950.4,234.0 950.7,234.7 951.0,233.3 951.3,234.5 951.5,233.7 951.8,233.7 952.1,233.7 952.4,233.4 952.6,233.8 952.9,232.8 953.2,233.5 953.5,233.6 953.7,233.8 954.0,234.8 954.3,234.8 954.5,235.8 954.8,235.8 955.1,236.7 955.4,237.9 955.6,240.1 955.9,238.8 956.2,237.4 956.5,236.6 956.7,236.9 957.0,235.7 957.3,234.7 957.6,234.8 957.8,233.8 958.1,232.8 958.4,233.1 958.7,232.8 958.9,232.2 959.2,232.6 959.5,232.8 959.8,232.4 960.0,232.6 960.3,232.8 960.6,233.4 960.9,233.9 961.1,233.4 961.4,234.4 961.7,234.9 962.0,235.0 962.2,236.7 962.5,236.1 962.8,236.1 963.1,237.3 963.3,237.3 963.6,238.3 963.9,239.5 964.2,239.9 964.4,240.5 964.7,241.0 965.0,242.7 965.3,243.3 965.5,244.6 965.8,245.9 966.1,246.3 966.4,248.1 966.6,246.7 966.9,246.8 967.2,245.7 967.5,244.8 967.7,244.9 968.0,243.8 968.3,245.1 968.6,244.5 968.8,244.0 969.1,244.4 969.4,243.7 969.7,244.6 969.9,243.9 970.2,244.5 970.5,243.8 970.7,244.9 971.0,245.0 971.3,245.5 971.6,246.0 971.8,246.4 972.1,246.9 972.4,247.2 972.7,247.6 972.9,247.7 973.2,247.9 973.5,248.7 973.8,249.2 974.0,249.9 974.3,250.7 974.6,251.8 974.9,251.7 975.1,253.4 975.4,253.9 975.7,255.2 976.0,256.1 976.2,257.2 976.5,258.6 976.8,260.0 977.1,261.6 977.3,261.6 977.6,262.2 977.9,259.3 978.2,258.5 978.4,257.8 978.7,258.1 979.0,258.3 979.3,257.8 979.5,255.4 979.8,255.6 980.1,254.7 980.4,253.7 980.6,253.3 980.9,252.2 981.2,253.5 981.5,251.8 981.7,251.5 982.0,250.5 982.3,250.0 982.6,249.4 982.8,249.6 983.1,249.5 983.4,248.6 983.7,250.7 983.9,248.4 984.2,249.1 984.5,247.3 984.8,247.4 985.0,247.2 985.3,247.4 985.6,246.0 985.9,248.2 986.1,248.0 986.4,248.9 986.7,248.2 987.0,246.9 987.2,245.9 987.5,244.2 987.8,243.2 988.1,242.1 988.3,242.6 988.6,242.5 988.9,242.7 989.2,242.8 989.4,241.9 989.7,240.0 990.0,238.9 990.3,237.3 990.5,235.6 990.8,234.2 991.1,232.0 991.4,230.8 991.6,229.6 991.9,226.8 992.2,228.3 992.5,227.0 992.7,226.5 993.0,225.8 993.3,224.9 993.6,224.6 993.8,223.9 994.1,223.5 994.4,223.0 994.7,222.5 994.9,222.2 995.2,222.6 995.5,222.4 995.8,222.4 996.0,222.1 996.3,222.1 996.6,221.3 996.8,219.9 997.1,219.9 997.4,218.3 997.7,217.6 997.9,216.9 998.2,216.0 998.5,215.5 998.8,214.1 999.0,213.6 999.3,212.6 999.6,212.2 999.9,211.5 1000.1,211.1 1000.4,210.2 1000.7,210.3 1001.0,209.9 1001.2,208.7 1001.5,207.8 1001.8,206.2 1002.1,206.3 1002.3,204.5 1002.6,202.4 1002.9,201.0 1003.2,199.5 1003.4,198.8 1003.7,197.5 1004.0,195.1 1004.3,193.9 1004.5,192.1 1004.8,190.0 1005.1,188.8 1005.4,187.3 1005.6,186.4 1005.9,184.8 1006.2,184.2 1006.5,183.1 1006.7,182.2 1007.0,181.2 1007.3,180.9 1007.6,179.9 1007.8,179.9 1008.1,179.0 1008.4,178.3 1008.7,178.3 1008.9,177.7 1009.2,177.2 1009.5,176.8 1009.8,176.6 1010.0,176.3 1010.3,175.6 1010.6,175.4 1010.9,174.7 1011.1,175.0 1011.4,174.6 1011.7,174.1 1011.9,173.7 1012.2,173.2 1012.5,172.5 1012.8,172.6 1013.0,172.3 1013.3,171.7 1013.6,171.3 1013.9,171.2 1014.1,170.8 1014.4,170.4 1014.7,169.9 1015.0,169.7 1015.2,169.4 1015.5,168.9 1015.8,168.5 1016.1,167.7 1016.3,166.3 1016.6,166.1 1016.9,165.5 1017.2,164.3 1017.4,163.4 1017.7,162.8 1018.0,162.4 1018.3,162.2 1018.5,161.4 1018.8,160.7 1019.1,159.0 1019.4,158.8 1019.6,157.9 1019.9,156.9 1020.2,156.5 1020.5,155.4 1020.7,155.2 1021.0,154.3 1021.3,153.3 1021.6,152.4 1021.8,151.5 1022.1,150.7 1022.4,150.2 1022.7,149.3 1022.9,148.4 1023.2,148.0 1023.5,147.1 1023.8,146.2 1024.0,145.8 1024.3,145.3 1024.6,144.3 1024.9,143.4 1025.1,143.0 1025.4,141.9 1025.7,141.6 1026.0,140.9 1026.2,140.3 1026.5,139.8 1026.8,139.3 1027.0,138.5 1027.3,137.4 1027.5,136.6 1027.8,137.8 1028.1,137.8 1028.4,137.9 1028.6,136.4 1028.9,137.1 1029.2,136.3 1029.5,137.5 1029.7,137.4 1030.0,137.2 1030.3,137.3 1030.6,137.0 1030.8,137.5 1031.1,135.8 1031.4,136.8 1031.7,136.6 1031.9,137.5 1032.2,136.0 1032.5,136.5 1032.8,137.1 1033.0,136.5 1033.3,136.3 1033.6,135.8 1033.9,135.3 1034.1,135.1 1034.4,134.9 1034.7,134.5 1035.0,134.4 1035.2,134.5 1035.5,132.8 1035.8,132.8 1036.1,132.3 1036.3,131.7 1036.6,131.5 1036.9,131.1 1037.2,130.6 1037.4,130.2 1037.7,129.7 1038.0,129.5 1038.2,128.9 1038.5,128.7 1038.8,128.2 1039.1,127.5 1039.3,127.3 1039.6,126.8 1039.9,126.0 1040.2,126.0 1040.4,125.9 1040.7,125.6 1041.0,125.4 1041.3,124.9 1041.5,124.6 1041.8,124.4 1042.1,124.2 1042.4,123.9 1042.6,124.2 1042.9,124.1 1043.2,124.1 1043.5,123.8 1043.7,123.9 1044.0,124.2 1044.3,124.2 1044.6,124.3 1044.8,124.8 1045.1,124.8 1045.4,125.9 1045.7,125.6 1045.9,126.0 1046.2,126.2 1046.5,126.7 1046.8,127.1 1047.0,127.6 1047.3,127.8 1047.6,128.5 1047.9,129.1 1048.1,129.4 1048.4,130.4 1048.7,130.6 1048.9,131.3 1049.2,131.5 1049.5,132.3 1049.8,132.3 1050.0,133.0 1050.3,133.6 1050.6,133.7 1050.9,134.3 1051.1,134.5 1051.4,134.6 1051.7,135.1 1052.0,135.2 1052.2,134.9 1052.5,135.3 1052.8,135.6 1053.1,135.8 1053.3,135.6 1053.6,136.0 1053.9,135.9 1054.2,135.9 1054.4,135.6 1054.7,135.8 1055.0,135.3 1055.3,135.6 1055.5,135.0 1055.8,135.0 1056.1,134.7 1056.3,134.6 1056.6,134.5 1056.9,134.2 1057.2,134.2 1057.4,133.3 1057.7,133.4 1058.0,133.5 1058.3,133.3 1058.5,133.2 1058.8,133.0 1059.1,132.6 1059.4,132.5 1059.6,132.3 1059.9,132.0 1060.2,131.3 1060.5,131.1 1060.7,131.3 1061.0,131.4 1061.3,130.9 1061.6,130.8 1061.8,131.0 1062.1,130.9 1062.4,130.9 1062.7,130.8 1062.9,131.1 1063.2,131.4 1063.5,131.4 1063.8,132.1 1064.0,132.1 1064.3,132.3 1064.6,132.9 1064.9,132.4 1065.1,133.1 1065.4,133.1 1065.7,133.6 1066.0,133.6 1066.2,134.3 1066.5,134.6 1066.8,135.8 1067.0,136.2 1067.3,135.8 1067.6,137.5 1067.9,138.7 1068.1,139.0 1068.4,140.1 1068.7,141.1 1069.0,142.7 1069.2,143.2 1069.5,145.7 1069.8,145.7 1070.1,149.8 1070.4,150.0 1070.6,153.7 1070.9,153.6 1071.2,153.6 1071.5,159.0 1071.7,159.0 1072.0,159.4 1072.3,160.2 1072.6,160.2 1072.8,160.7 1073.1,161.8 1073.4,161.8 1073.7,162.0 1073.9,163.9 1074.2,163.0 1074.5,164.4 1074.8,166.7 1075.0,168.0 1075.3,169.8 1075.6,171.4 1075.9,170.0 1076.1,168.3 1076.4,165.8 1076.7,165.7 1077.0,162.6 1077.2,161.9 1077.5,160.3 1077.8,157.5 1078.1,158.7 1078.3,159.4 1078.6,159.7 1078.9,159.2 1079.2,159.9 1079.4,160.9 1079.7,158.8 1080.0,161.2 1080.3,160.0 1080.5,161.8 1080.8,163.9 1081.1,164.3 1081.4,168.8 1081.6,165.6 1081.9,160.6 1082.2,157.6 1082.5,155.6 1082.8,152.3 1083.0,151.9 1083.3,147.6 1083.6,145.1 1083.9,142.3 1084.1,142.3 1084.4,137.6 1084.7,135.3 1085.0,134.7 1085.3,132.7 1085.5,130.7 1085.8,128.3 1086.1,127.6 1086.3,127.7 1086.6,127.2 1086.9,126.3 1087.2,126.0 1087.4,126.0 1087.7,126.0 1088.0,125.5 1088.3,125.4 1088.5,125.4 1088.8,125.8 1089.1,125.4 1089.4,125.7 1089.6,125.1 1089.9,125.1 1090.2,125.0 1090.5,124.9 1090.7,125.0 1091.0,124.6 1091.3,124.6 1091.6,124.5 1091.8,124.1 1092.1,123.4 1092.4,123.0 1092.7,123.0 1092.9,122.8 1093.2,122.6 1093.5,121.5 1093.8,121.6 1094.0,121.3 1094.3,120.7 1094.6,120.4 1094.8,119.8 1095.1,118.9 1095.4,118.7 1095.7,118.5 1095.9,118.2 1096.2,118.0 1096.5,118.0 1096.8,116.7 1097.0,116.0 1097.3,115.9 1097.6,115.6 1097.9,114.5 1098.1,113.4 1098.4,112.5 1098.7,111.6 1099.0,111.4 1099.2,110.8 1099.5,110.4 1099.8,110.2 1100.1,110.0 1100.3,109.9 1100.6,110.1 1100.9,111.0 1101.2,112.0 1101.4,112.0 1101.7,113.4 1102.0,113.3 1102.3,114.5 1102.5,114.5 1102.8,115.1 1103.1,116.0 1103.4,116.3 1103.6,117.5 1103.9,117.8 1104.2,118.7 1104.5,119.3 1104.7,119.8 1105.0,120.4 1105.3,121.1 1105.6,121.8 1105.8,122.4 1106.1,122.6 1106.4,123.4 1106.7,123.9 1106.9,124.3 1107.2,124.6 1107.5,124.3 1107.8,124.3 1108.0,126.1 1108.3,126.4 1108.6,127.0 1108.9,127.3 1109.1,127.3 1109.4,127.7 1109.7,127.8 1110.0,128.1 1110.2,127.9 1110.5,128.8 1110.8,127.8 1111.1,128.6 1111.3,129.1 1111.6,129.1 1111.9,129.3 1112.1,129.8 1112.4,129.7 1112.7,129.8 1113.0,130.0 1113.2,130.0 1113.5,130.1 1113.8,130.0 1114.1,130.1 1114.3,130.2 1114.6,131.1 1114.9,131.1 1115.2,131.5 1115.4,131.5 1115.7,131.6 1116.0,131.9 1116.3,132.5 1116.5,132.9 1116.8,132.9 1117.1,133.1 1117.4,133.1 1117.6,133.8 1117.9,133.8 1118.2,134.4 1118.5,134.4 1118.7,135.0 1119.0,135.0 1119.3,135.2 1119.6,135.2 1119.8,135.9 1120.1,135.9 1120.4,136.1 1120.7,136.3 1120.9,136.7 1121.2,136.7 1121.5,137.0 1121.8,137.1 1122.0,136.7 1122.3,137.1 1122.6,137.3 1122.8,137.5 1123.1,138.1 1123.4,138.1 1123.7,138.2 1123.9,138.3 1124.2,138.5 1124.5,138.6 1124.8,138.6 1125.0,139.1 1125.3,139.1 1125.6,138.9 1125.9,139.0 1126.1,139.0 1126.4,138.4 1126.7,138.2 1127.0,138.0 1127.2,137.7 1127.5,137.7 1127.8,135.6 1128.1,135.2 1128.3,133.8 1128.6,134.3 1128.9,133.2 1129.2,132.8 1129.4,132.2 1129.7,131.5 1130.0,131.5 1130.3,131.0 1130.5,131.0 1130.8,129.0 1131.1,128.6 1131.4,127.1 1131.6,126.3 1131.9,125.9 1132.2,124.9 1132.5,124.4 1132.7,124.3 1133.0,123.4 1133.3,123.8 1133.6,122.8 1133.8,122.3 1134.1,122.6 1134.4,122.0 1134.7,122.1 1134.9,122.2 1135.2,122.1 1135.5,122.1 1135.8,122.8 1136.0,122.0 1136.3,123.6 1136.6,123.6 1136.9,124.7 1137.1,124.7 1137.4,125.0 1137.7,125.8 1137.9,125.5 1138.2,125.6 1138.5,125.3 1138.8,125.3 1139.0,125.4 1139.3,125.2 1139.6,124.7 1139.9,124.8 1140.1,124.8 1140.4,124.5 1140.7,124.7 1141.0,124.8 1141.2,124.6 1141.5,124.7 1141.8,124.4 1142.1,124.0 1142.3,124.3 1142.6,124.0 1142.9,124.3 1143.2,124.4 1143.4,124.4 1143.7,124.4 1144.0,124.6 1144.3,124.0 1144.5,124.8 1144.8,124.8 1145.1,124.8 1145.4,124.1 1145.6,124.2 1145.9,125.5 1146.2,125.0 1146.5,124.4 1146.7,123.8 1147.0,123.7 1147.3,124.3 1147.6,124.3 1147.8,124.3 1148.1,123.6 1148.4,124.3 1148.7,123.5 1148.9,123.2 1149.2,123.3 1149.5,123.1 1149.8,122.8 1150.0,123.1 1150.3,122.6 1150.6,122.9 1150.9,122.6 1151.1,122.5 1151.4,122.5 1151.7,122.5 1152.0,122.7 1152.2,122.7 1152.5,123.1 1152.8,123.4 1153.0,123.4 1153.3,123.4 1153.6,123.1 1153.9,123.1 1154.1,123.3 1154.4,123.9 1154.7,124.1 1155.0,124.3 1155.2,124.7 1155.5,123.5 1155.8,124.0 1156.1,125.4 1156.3,125.3 1156.6,125.1 1156.9,125.9 1157.2,126.9 1157.4,126.9 1157.7,126.8 1158.0,126.8 1158.3,127.0 1158.5,128.1 1158.8,127.0 1159.1,128.8 1159.4,128.9 1159.6,129.6 1159.9,129.4 1160.2,129.5 1160.5,129.4 1160.7,129.9 1161.0,129.7 1161.3,129.8 1161.6,129.6 1161.8,130.1 1162.1,129.5 1162.4,129.5 1162.7,128.9 1162.9,128.6 1163.2,128.3 1163.5,128.1 1163.8,127.7 1164.0,127.6 1164.3,126.3 1164.6,126.2 1164.9,125.7 1165.1,124.7 1165.4,124.2 1165.7,123.4 1166.0,123.3 1166.2,122.7 1166.5,122.5 1166.8,122.2 1167.1,122.0 1167.3,121.6 1167.6,121.6 1167.9,121.6 1168.2,121.4 1168.4,121.2 1168.7,121.9 1168.9,121.9 1168.9,121.9 1169.2,121.1 1169.5,121.0 1169.5,121.0 1170.0,121.9" fill="none" stroke="#8a6d3b" stroke-width="1.5"/>
<polyline points="80.0,467.9 81.4,468.1 81.4,469.0 81.4,469.0 81.4,459.7 81.8,459.7 81.8,462.3 81.8,462.3 81.8,447.5 83.6,447.7 84.2,447.8 84.9,447.9 85.6,448.0 86.3,448.1 87.0,448.2 87.7,448.3 88.4,448.4 89.1,448.5 89.7,448.6 90.4,448.7 91.1,448.7 91.8,448.8 92.5,448.9 93.1,449.0 93.8,449.1 94.5,449.2 95.2,449.3 95.9,449.4 96.6,449.5 96.6,460.2 96.6,460.2 96.6,120.6 97.3,120.7 97.9,120.8 98.6,120.9 99.3,120.9 100.0,121.0 100.7,121.1 101.4,121.2 102.1,121.3 102.8,121.3 103.4,121.4 104.1,121.5 104.8,121.6 105.5,121.7 106.2,121.7 106.9,121.8 107.6,121.9 108.2,122.0 108.9,122.1 109.6,122.1 110.3,122.2 111.0,122.3 111.7,122.4 112.4,122.5 113.0,122.5 113.7,122.6 114.4,122.7 115.1,122.8 115.8,122.9 116.5,122.9 117.2,123.0 117.8,123.1 118.5,123.2 119.2,123.3 119.9,123.3 120.6,123.4 121.3,123.5 122.0,123.6 122.5,123.6 123.1,123.7 123.8,123.8 124.5,123.9 125.2,124.0 125.9,124.0 126.6,124.1 127.3,124.2 128.7,124.4 129.3,124.4 130.0,124.5 130.7,124.6 131.4,124.7 132.1,124.8 132.6,124.8 133.3,124.9 134.0,125.0 134.7,125.1 135.3,125.1 136.0,125.2 136.7,125.3 137.4,125.4 138.1,125.5 138.8,125.5 139.5,125.6 140.2,125.7 140.8,125.8 141.5,125.9 142.2,125.9 142.9,126.0 143.6,126.1 144.3,126.2 145.0,126.3 145.6,126.3 146.3,126.4 147.0,126.5 147.7,126.6 148.4,126.7 149.1,126.7 149.7,126.8 150.4,126.9 151.1,127.0 151.8,127.1 152.5,127.1 153.2,127.2 153.9,127.3 154.5,127.4 155.2,127.5 155.9,127.5 156.6,127.6 157.3,127.7 158.0,127.8 158.7,127.9 159.3,127.9 160.0,128.0 160.7,128.1 161.4,128.2 162.1,128.3 162.8,128.3 163.5,128.4 164.1,128.5 164.8,128.6 165.5,128.7 166.2,128.7 166.9,128.8 167.6,128.9 168.3,129.0 168.9,129.1 169.6,129.1 170.3,129.2 171.0,129.3 171.7,129.4 172.4,129.4 173.1,129.5 173.7,129.6 174.4,129.7 175.1,129.8 175.8,129.8 176.5,129.9 177.2,130.0 177.9,130.1 178.6,130.2 179.2,130.2 179.9,130.3 180.6,130.4 181.3,130.5 182.0,130.6 182.7,130.6 183.4,130.7 184.0,130.8 184.7,130.9 185.4,131.0 186.1,131.0 186.8,131.1 187.5,131.2 188.2,131.3 188.8,131.4 189.5,131.4 190.2,131.5 190.9,131.6 191.6,131.7 192.3,131.8 193.0,131.8 193.6,131.9 194.3,132.0 195.0,132.1 195.7,132.2 196.4,132.2 197.1,132.3 197.8,132.4 198.4,132.5 199.1,132.6 199.8,132.6 200.5,132.7 201.2,132.8 201.9,132.9 202.6,133.0 203.2,133.0 203.9,133.1 204.6,133.2 205.3,133.3 206.0,133.4 206.7,133.4 207.4,133.5 208.0,133.6 208.7,133.7 209.4,133.8 210.1,133.8 210.8,133.9 211.5,134.0 212.2,134.1 212.8,134.2 213.5,134.2 214.2,134.3 214.9,134.4 215.6,134.5 216.3,134.6 217.0,134.6 217.6,134.7 218.3,134.8 219.0,134.9 219.7,135.0 220.4,135.0 221.1,135.1 221.8,135.2 222.4,135.3 223.1,135.4 223.8,135.4 224.5,135.5 225.2,135.6 225.9,135.7 226.6,135.8 227.2,135.8 227.9,135.9 228.6,136.0 229.3,136.1 230.0,136.2 230.7,136.2 231.4,136.3 232.0,136.4 232.7,136.5 233.4,136.6 234.1,136.6 234.8,136.7 235.5,136.8 236.2,136.9 236.8,137.0 237.5,137.0 238.2,137.1 238.9,137.2 239.6,137.3 240.3,137.4 241.0,137.4 241.7,137.5 242.3,137.6 243.0,137.7 243.7,137.8 244.4,137.8 245.1,137.9 245.8,138.0 246.5,138.1 247.1,138.2 247.8,138.2 248.5,138.3 249.2,138.4 249.9,138.5 250.6,138.6 251.3,138.6 251.9,138.7 252.6,138.8 253.3,138.9 254.0,139.0 254.7,139.0 255.4,139.1 256.1,139.2 256.7,139.3 257.4,139.4 258.1,139.4 258.8,139.5 259.5,139.6 260.2,139.7 260.9,139.8 261.5,139.8 262.2,139.9 262.9,140.0 263.6,140.1 264.3,140.2 265.0,140.2 265.7,140.3 266.3,140.4 267.0,140.5 267.7,140.6 268.4,140.6 269.1,140.7 269.8,140.8 270.5,140.9 271.1,141.0 271.8,141.0 272.5,141.1 273.2,141.2 273.9,141.3 274.6,141.4 275.3,141.4 275.9,141.5 276.6,141.6 277.3,141.7 278.0,141.8 278.7,141.8 279.4,141.9 280.1,142.0 280.7,142.1 281.4,142.2 282.1,142.2 282.8,142.3 283.5,142.4 284.2,142.5 284.9,142.6 285.5,142.6 286.2,142.7 286.9,142.8 287.6,142.9 288.3,143.0 289.0,143.0 289.7,143.1 290.4,143.2 291.0,143.3 291.7,143.3 292.4,143.4 293.1,143.5 293.8,143.6 294.5,143.7 295.2,143.7 295.8,143.8 296.5,143.9 297.2,144.0 297.9,144.1 298.6,144.1 299.3,144.2 300.0,144.3 300.6,144.4 301.3,144.5 302.0,144.5 302.7,144.6 303.4,144.7 304.1,144.8 304.8,144.9 305.4,144.9 306.1,145.0 306.8,145.1 307.5,145.2 308.2,145.3 308.9,145.3 309.6,145.4 310.2,145.5 310.9,145.6 311.6,145.7 312.3,145.7 313.0,145.8 313.7,145.9 314.4,146.0 315.0,146.1 315.7,146.1 316.4,146.2 317.1,146.3 317.8,146.4 318.5,146.5 319.2,146.5 319.8,146.6 320.5,146.7 321.2,146.8 321.9,146.9 322.6,146.9 323.3,147.0 324.0,147.1 324.6,147.2 325.3,147.3 326.0,147.3 326.7,147.4 327.4,147.5 328.1,147.6 328.8,147.7 329.4,147.7 330.1,147.8 330.8,147.9 331.5,148.0 332.2,148.1 332.9,148.1 333.6,148.2 334.2,148.3 334.9,148.4 335.6,148.5 336.3,148.5 337.0,148.6 337.7,148.7 338.4,148.8 339.0,148.9 339.7,148.9 340.4,149.0 341.1,149.1 341.8,149.2 342.5,149.3 343.2,149.3 343.8,149.4 344.5,149.5 345.2,149.6 345.9,149.7 346.6,149.7 347.3,149.8 348.0,149.9 348.7,150.0 349.3,150.1 350.0,150.1 350.7,150.2 351.4,150.3 352.1,150.4 352.7,150.4 353.4,150.5 354.1,150.6 354.7,150.7 355.4,150.8 356.1,150.9 356.8,150.9 357.5,151.0 362.8,151.6 363.1,151.7 363.3,151.7 363.6,151.7 363.8,151.7 364.2,151.8 364.6,151.8 365.3,151.9 366.0,152.0 366.3,152.0 366.3,157.9 366.3,157.9 368.7,158.1 369.4,158.2 370.1,158.3 370.8,158.3 371.5,158.4 372.2,158.5 372.9,158.5 373.6,158.6 374.3,158.7 375.0,158.7 375.7,158.8 376.2,158.9 376.9,158.9 377.6,159.0 378.3,159.1 378.9,159.1 379.6,159.2 380.2,159.3 380.8,159.3 381.5,159.4 382.2,159.5 382.9,159.5 383.6,159.6 384.3,159.7 385.0,159.7 385.7,159.8 386.3,159.9 387.0,159.9 387.7,160.0 388.4,160.1 389.1,160.1 389.8,160.2 390.5,160.3 391.1,160.3 391.8,160.4 392.5,160.5 393.2,160.5 393.9,160.6 394.6,160.7 395.3,160.8 395.9,160.8 396.6,160.9 397.3,161.0 398.0,161.0 398.7,161.1 399.4,161.2 400.1,161.2 400.7,161.3 401.4,161.4 402.1,161.4 402.8,161.5 403.5,161.6 404.2,161.6 404.9,161.7 405.5,161.8 406.2,161.8 406.9,161.9 407.6,162.0 408.2,162.0 408.9,162.1 409.6,162.2 410.3,162.2 411.0,162.3 411.7,162.4 412.4,162.4 413.0,162.5 413.7,162.6 414.4,162.7 415.1,162.7 415.8,162.8 416.5,162.9 417.2,162.9 417.8,163.0 418.5,163.1 419.2,163.1 419.9,163.2 420.6,163.3 421.3,163.3 422.0,163.4 422.6,163.5 423.3,163.5 424.0,163.6 424.7,163.7 425.4,163.7 426.1,163.8 426.8,163.9 427.4,163.9 428.1,164.0 428.8,164.1 429.5,164.1 430.2,164.2 430.9,164.3 431.6,164.4 432.2,164.4 432.9,164.5 433.6,164.6 434.3,164.6 435.0,164.7 435.7,164.8 436.4,164.8 437.1,164.9 437.7,165.0 438.4,165.0 439.1,165.1 439.8,165.2 440.5,165.2 441.2,165.3 441.9,165.4 442.5,165.4 443.2,165.5 443.9,165.6 444.6,165.6 445.3,165.7 446.0,165.8 446.7,165.8 447.3,165.9 448.0,166.0 448.7,166.1 449.4,166.1 450.1,166.2 450.8,166.3 451.5,166.3 452.1,166.4 452.8,166.5 453.5,166.5 454.2,166.6 454.9,166.7 455.6,166.7 456.3,166.8 456.9,166.9 457.6,166.9 458.3,167.0 459.0,167.1 459.7,167.1 460.4,167.2 461.1,167.3 461.7,167.3 462.4,167.4 463.1,167.5 463.8,167.5 464.5,167.6 465.2,167.7 465.9,167.8 466.6,167.8 467.2,167.9 467.9,168.0 468.6,168.0 469.3,168.1 470.0,168.2 470.7,168.2 471.4,168.3 472.0,168.4 472.7,168.4 473.4,168.5 474.1,168.6 474.8,168.6 475.4,168.7 476.1,168.8 476.8,168.8 477.5,168.9 478.2,169.0 478.9,169.0 479.6,169.1 480.2,169.2 480.9,169.2 481.6,169.3 482.3,169.4 483.0,169.5 483.7,169.5 484.4,169.6 485.0,169.7 485.7,169.7 486.4,169.8 487.1,169.9 487.8,169.9 488.5,170.0 489.2,170.1 489.8,170.1 490.5,170.2 491.2,170.3 491.9,170.3 492.6,170.4 493.3,170.5 494.0,170.5 494.6,170.6 495.3,170.7 496.0,170.7 496.7,170.8 497.4,170.9 498.1,170.9 498.8,171.0 499.4,171.1 500.1,171.2 500.8,171.2 501.5,171.3 502.2,171.4 502.9,171.4 503.6,171.5 504.3,171.6 504.9,171.6 505.6,171.7 506.3,171.8 507.0,171.8 507.7,171.9 508.4,172.0 509.1,172.0 509.7,172.1 510.4,172.2 511.1,172.2 511.8,172.3 512.5,172.4 513.2,172.4 513.9,172.5 514.5,172.6 515.2,172.6 515.9,172.7 516.6,172.8 517.3,172.9 518.0,172.9 518.7,173.0 519.3,173.1 520.0,173.1 520.7,173.2 521.4,173.3 522.1,173.3 522.8,173.4 523.5,173.5 524.1,173.5 524.8,173.6 525.5,173.7 526.2,173.7 526.9,173.8 527.6,173.9 528.3,173.9 528.9,174.0 529.6,174.1 530.3,174.1 531.0,174.2 531.7,174.3 532.4,174.3 533.1,174.4 533.7,174.5 534.4,174.6 535.1,174.6 535.8,174.7 536.5,174.8 537.2,174.8 537.9,174.9 538.6,175.0 539.2,175.0 539.9,175.1 540.6,175.2 541.3,175.2 542.0,175.3 542.7,175.4 543.4,175.4 544.0,175.5 544.7,175.6 545.4,175.6 546.1,175.7 546.8,175.8 547.5,175.8 548.2,175.9 548.8,176.0 549.5,176.0 550.2,176.1 550.9,176.2 551.6,176.3 552.3,176.3 553.0,176.4 553.7,176.5 554.3,176.5 555.0,176.6 555.7,176.7 556.4,176.7 557.1,176.8 557.8,176.9 558.5,176.9 559.1,177.0 559.8,177.1 560.5,177.1 561.2,177.2 561.9,177.3 562.6,177.3 563.3,177.4 564.0,177.5 564.6,177.5 565.3,177.6 566.0,177.7 566.7,177.7 567.4,177.8 568.1,177.9 568.8,178.0 569.4,178.0 570.1,178.1 570.8,178.2 571.5,178.2 572.2,178.3 572.9,178.4 573.6,178.4 574.2,178.5 574.9,178.6 575.6,178.6 576.3,178.7 577.0,178.8 577.7,178.8 578.4,178.9 579.0,179.0 579.7,179.0 580.4,179.1 581.1,179.2 581.8,179.2 582.5,179.3 583.2,179.4 583.8,179.5 584.5,179.5 585.2,179.6 585.9,179.7 586.6,179.7 587.3,179.8 588.0,179.9 588.7,179.9 589.3,180.0 590.0,180.1 590.7,180.1 591.4,180.2 592.1,180.3 592.8,180.3 593.5,180.4 594.1,180.5 594.8,180.5 595.5,180.6 596.2,180.7 596.9,180.7 597.6,180.8 598.3,180.9 598.9,180.9 599.6,181.0 600.3,181.1 601.0,181.2 601.7,181.2 602.4,181.3 603.1,181.4 603.7,181.4 604.4,181.5 605.1,181.6 605.8,181.6 606.5,181.7 607.2,181.8 607.9,181.8 608.5,181.9 609.2,182.0 609.9,182.0 610.6,182.1 611.3,182.2 612.0,182.2 612.7,182.3 613.3,182.4 614.0,182.4 614.7,182.5 615.4,182.6 616.1,182.6 616.8,182.7 617.5,182.8 618.2,182.9 618.8,182.9 619.5,183.0 620.2,183.1 620.9,183.1 621.6,183.2 622.3,183.3 622.9,183.3 623.6,183.4 624.3,183.5 625.0,183.5 625.7,183.6 626.4,183.7 627.1,183.7 627.7,183.8 628.4,183.9 629.1,183.9 629.8,184.0 630.5,184.1 631.2,184.1 631.9,184.2 632.5,184.3 633.2,184.3 633.9,184.4 634.6,184.5 635.3,184.5 636.0,184.6 636.7,184.7 637.3,184.8 638.0,184.8 638.7,184.9 639.4,185.0 640.1,185.0 640.8,185.1 641.5,185.2 642.1,185.2 642.8,185.3 643.5,185.4 644.2,185.4 644.9,185.5 645.6,185.6 646.3,185.6 646.9,185.7 647.6,185.8 648.3,185.8 649.0,185.9 649.7,186.0 650.4,186.0 651.1,186.1 651.8,186.2 652.4,186.3 653.1,186.3 653.8,186.4 654.5,186.5 655.2,186.5 655.9,186.6 656.6,186.7 657.2,186.7 657.9,186.8 658.6,186.9 659.3,186.9 660.0,187.0 660.7,187.1 661.4,187.1 662.1,187.2 662.7,187.3 663.4,187.3 664.1,187.4 664.8,187.5 665.5,187.5 666.2,187.6 666.9,187.7 667.5,187.7 668.2,187.8 668.9,187.9 669.6,188.0 670.3,188.0 671.0,188.1 671.7,188.2 672.3,188.2 673.0,188.3 673.7,188.4 674.4,188.4 675.1,188.5 675.8,188.6 676.5,188.6 677.1,188.7 677.8,188.8 678.5,188.8 679.2,188.9 679.9,189.0 680.6,189.0 681.3,189.1 681.9,189.2 682.6,189.2 683.3,189.3 684.0,189.4 684.7,189.4 685.4,189.5 686.1,189.6 686.8,189.7 687.4,189.7 688.1,189.8 688.8,189.9 689.5,189.9 690.2,190.0 690.9,190.1 691.6,190.1 692.2,190.2 692.9,190.3 693.6,190.3 694.3,190.4 695.0,190.5 695.7,190.5 696.4,190.6 697.0,190.7 697.7,190.7 698.4,190.8 699.1,190.9 699.8,190.9 700.5,191.0 701.2,191.1 701.8,191.1 702.5,191.2 703.2,191.3 703.9,191.4 704.6,191.4 705.3,191.5 706.0,191.6 706.6,191.6 707.3,191.7 708.0,191.8 708.7,191.8 709.4,191.9 710.1,192.0 710.8,192.0 711.5,192.1 712.1,192.2 712.8,192.2 713.5,192.3 714.2,192.4 714.9,192.4 715.6,192.5 716.3,192.6 716.9,192.6 717.6,192.7 718.3,192.8 719.0,192.8 719.7,192.9 720.4,193.0 721.1,193.1 721.7,193.1 722.4,193.2 723.1,193.3 723.8,193.3 724.5,193.4 725.2,193.5 725.9,193.5 726.6,193.6 727.2,193.7 727.9,193.7 728.6,193.8 729.3,193.9 730.0,193.9 730.7,194.0 731.4,194.1 732.0,194.1 732.7,194.2 733.4,194.3 734.1,194.3 734.8,194.4 735.5,194.5 736.2,194.5 736.8,194.6 737.5,194.7 738.2,194.8 738.9,194.8 739.6,194.9 740.3,195.0 741.0,195.0 741.6,195.1 742.3,195.2 743.0,195.2 743.7,195.3 744.4,195.4 745.1,195.4 745.8,195.5 746.4,195.6 747.1,195.6 747.8,195.7 748.5,195.8 749.2,195.8 749.9,195.9 750.6,196.0 751.2,196.0 751.9,196.1 752.6,196.2 753.3,196.3 754.0,196.3 754.7,196.4 755.4,196.5 756.1,196.5 756.7,196.6 757.4,196.7 758.1,196.7 758.8,196.8 759.5,196.9 760.2,196.9 760.9,197.0 761.5,197.1 762.2,197.1 762.9,197.2 763.6,197.3 764.3,197.3 765.0,197.4 765.7,197.5 766.3,197.5 767.0,197.6 767.7,197.7 768.4,197.7 769.1,197.8 769.8,197.9 770.5,198.0 771.1,198.0 771.8,198.1 772.5,198.2 773.2,198.2 773.9,198.3 774.6,198.4 775.3,198.4 775.9,198.5 776.6,198.6 777.3,198.6 778.0,198.7 778.7,198.8 779.4,198.8 780.1,198.9 780.7,199.0 781.4,199.0 782.1,199.1 782.8,199.2 783.5,199.2 784.2,199.3 784.9,199.4 785.5,199.4 786.2,199.5 786.9,199.6 787.6,199.7 788.3,199.7 789.0,199.8 789.7,199.9 790.4,199.9 791.0,200.0 791.7,200.1 792.4,200.1 793.1,200.2 793.8,200.3 794.5,200.3 795.2,200.4 795.9,200.5 796.5,200.5 797.2,200.6 797.9,200.7 798.6,200.7 799.3,200.8 800.0,200.9 800.7,200.9 801.4,201.0 802.0,201.1 802.7,201.1 803.4,201.2 804.1,201.3 804.8,201.4 805.5,201.4 806.2,201.5 806.8,201.6 807.5,201.6 808.2,201.7 808.9,201.8 809.6,201.8 810.3,201.9 811.0,202.0 811.6,202.0 812.3,202.1 813.0,202.2 813.7,202.2 814.4,202.3 815.1,202.4 815.8,202.4 816.4,202.5 817.1,202.6 817.8,202.6 818.5,202.7 819.2,202.8 819.9,202.8 820.6,202.9 821.2,203.0 821.9,203.1 822.6,203.1 823.3,203.2 824.0,203.3 824.7,203.3 825.4,203.4 826.0,203.5 826.7,203.5 827.4,203.6 828.1,203.7 828.8,203.7 829.5,203.8 830.2,203.9 830.9,203.9 831.5,204.0 832.2,204.1 832.9,204.1 833.6,204.2 834.3,204.3 835.0,204.3 835.7,204.4 836.3,204.5 837.0,204.6 837.7,204.6 838.4,204.7 839.1,204.8 839.8,204.8 840.5,204.9 841.1,205.0 841.8,205.0 842.5,205.1 843.2,205.2 843.9,205.2 844.6,205.3 845.3,205.4 845.9,205.4 846.6,205.5 847.3,205.6 848.0,205.6 848.7,205.7 849.4,205.8 850.1,205.8 850.7,205.9 851.4,206.0 852.1,206.0 852.8,206.1 853.5,206.2 854.2,206.3 854.9,206.3 855.6,206.4 856.2,206.5 856.9,206.5 857.6,206.6 858.3,206.7 859.0,206.7 859.7,206.8 860.4,206.9 861.0,206.9 861.7,207.0 862.4,207.1 863.1,207.1 863.8,207.2 864.5,207.3 865.2,207.3 865.8,207.4 866.5,207.5 867.2,207.5 867.9,207.6 868.6,207.7 869.3,207.7 870.0,207.8 870.7,207.9 871.3,208.0 872.0,208.0 872.7,208.1 873.4,208.2 874.1,208.2 874.8,208.3 875.5,208.4 876.1,208.4 876.8,208.5 877.5,208.6 878.2,208.6 878.9,208.7 879.6,208.8 880.3,208.8 880.9,208.9 881.6,209.0 882.3,209.0 883.0,209.1 883.7,209.2 884.4,209.2 885.1,209.3 885.7,209.4 886.4,209.4 887.1,209.5 887.8,209.6 888.5,209.7 889.2,209.7 889.9,209.8 890.5,209.9 891.2,209.9 891.9,210.0 892.6,210.1 893.3,210.1 894.0,210.2 894.7,210.3 895.4,210.3 896.0,210.4 896.7,210.5 897.4,210.5 900.3,210.8 900.3,271.0 900.3,271.0 900.3,81.0 902.4,81.3 902.7,81.3 903.0,81.3 903.2,81.4 903.5,81.4 903.8,81.4 904.1,81.5 904.3,81.5 904.6,81.5 904.9,81.6 905.2,81.6 905.4,81.6 905.7,81.7 906.0,81.7 906.3,81.7 906.5,81.8 906.8,81.8 907.1,81.8 907.4,81.9 907.6,81.9 907.9,81.9 908.2,82.0 908.5,82.0 908.7,82.0 909.0,82.0 909.3,82.1 909.6,82.1 909.8,82.1 910.1,82.2 910.4,82.2 910.6,82.2 910.9,82.3 911.2,82.3 911.5,82.3 911.7,82.4 912.0,82.4 912.3,82.4 912.6,82.5 912.8,82.5 913.1,82.5 913.4,82.6 913.7,82.6 913.9,82.6 914.2,82.7 914.5,82.7 914.8,82.7 915.0,82.7 915.3,82.8 915.6,82.8 915.8,82.8 916.1,82.9 916.4,82.9 916.7,82.9 916.9,83.0 917.2,83.0 917.5,83.0 917.8,83.1 918.0,83.1 918.3,83.1 918.6,83.2 918.9,83.2 919.1,83.2 919.4,83.3 919.7,83.3 920.0,83.3 920.2,83.4 920.5,83.4 920.8,83.4 921.1,83.5 921.3,83.5 921.6,83.5 921.9,83.5 922.2,83.6 922.4,83.6 922.7,83.6 923.0,83.7 923.3,83.7 923.5,83.7 923.8,83.8 924.1,83.8 924.4,83.8 924.6,83.9 924.9,83.9 925.2,83.9 925.5,84.0 925.7,84.0 926.0,84.0 926.3,84.1 926.6,84.1 926.8,84.1 927.1,84.2 927.4,84.2 927.7,84.2 927.9,84.3 928.2,84.3 928.5,84.3 928.8,84.3 929.0,84.4 929.3,84.4 929.6,84.4 929.8,84.5 930.1,84.5 930.4,84.5 930.7,84.6 930.9,84.6 931.2,84.6 931.5,84.7 931.8,84.7 932.0,84.7 932.3,84.8 932.6,84.8 932.9,84.8 933.1,84.9 933.4,84.9 933.7,84.9 934.0,85.0 934.2,85.0 934.5,85.0 934.8,85.0 935.1,85.1 935.3,85.1 935.6,85.1 935.9,85.2 936.2,85.2 936.4,85.2 936.7,85.3 937.0,85.3 937.3,85.3 937.5,85.4 937.8,85.4 938.1,85.4 938.4,85.5 938.6,85.5 938.9,85.5 939.2,85.6 939.5,85.6 939.7,85.6 940.0,85.7 940.3,85.7 940.5,85.7 940.8,85.8 941.1,85.8 941.4,85.8 941.6,85.8 941.9,85.9 942.2,85.9 942.5,85.9 942.7,86.0 943.0,86.0 943.3,86.0 943.6,86.1 943.8,86.1 944.1,86.1 944.4,86.2 944.7,86.2 944.9,86.2 945.2,86.3 945.5,86.3 945.8,86.3 946.0,86.4 946.3,86.4 946.6,86.4 946.9,86.5 947.1,86.5 947.4,86.5 947.7,86.6 948.0,86.6 948.2,86.6 948.5,86.6 948.8,86.7 949.1,86.7 949.3,86.7 949.6,86.8 949.9,86.8 950.2,86.8 950.4,86.9 950.7,86.9 951.0,86.9 951.3,87.0 951.5,87.0 951.8,87.0 952.1,87.1 952.4,87.1 952.6,87.1 952.9,87.2 953.2,87.2 953.5,87.2 953.7,87.3 954.0,87.3 954.3,87.3 954.5,87.4 954.8,87.4 955.1,87.4 955.4,87.4 955.6,87.5 955.9,87.5 956.2,87.5 956.5,87.6 956.7,87.6 957.0,87.6 957.3,87.7 957.6,87.7 957.8,87.7 958.1,87.8 958.4,87.8 958.7,87.8 958.9,87.9 959.2,87.9 959.5,87.9 959.8,88.0 960.0,88.0 960.3,88.0 960.6,88.1 960.9,88.1 961.1,88.1 961.4,88.2 961.7,88.2 962.0,88.2 962.2,88.2 962.5,88.3 962.8,88.3 963.1,88.3 963.3,88.4 963.6,88.4 963.9,88.4 964.2,88.5 964.4,88.5 964.7,88.5 965.0,88.6 965.3,88.6 965.5,88.6 965.8,88.7 966.1,88.7 966.4,88.7 966.6,88.8 966.9,88.8 967.2,88.8 967.5,88.9 967.7,88.9 968.0,88.9 968.3,89.0 968.6,89.0 968.8,89.0 969.1,89.0 969.4,89.1 969.7,89.1 969.9,89.1 970.2,89.2 970.5,89.2 970.7,89.2 971.0,89.3 971.3,89.3 971.6,89.3 971.8,89.4 972.1,89.4 972.4,89.4 972.7,89.5 972.9,89.5 973.2,89.5 973.5,89.6 973.8,89.6 974.0,89.6 974.3,89.7 974.6,89.7 974.9,89.7 975.1,89.8 975.4,89.8 975.7,89.8 976.0,89.8 976.2,89.9 976.5,89.9 976.8,89.9 977.1,90.0 977.3,90.0 977.6,90.0 977.9,90.1 978.2,90.1 978.4,90.1 978.7,90.2 979.0,90.2 979.3,90.2 979.5,90.3 979.8,90.3 980.1,90.3 980.4,90.4 980.6,90.4 980.9,90.4 981.2,90.5 981.5,90.5 981.7,90.5 982.0,90.6 982.3,90.6 982.6,90.6 982.8,90.6 983.1,90.7 983.4,90.7 983.7,90.7 983.9,90.8 984.2,90.8 984.5,90.8 984.8,90.9 985.0,90.9 985.3,90.9 985.6,91.0 985.9,91.0 986.1,91.0 986.4,91.1 986.7,91.1 987.0,91.1 987.2,91.2 987.5,91.2 987.8,91.2 988.1,91.3 988.3,91.3 988.6,91.3 988.9,91.4 989.2,91.4 989.4,91.4 989.7,91.4 990.0,91.5 990.3,91.5 990.5,91.5 990.8,91.6 991.1,91.6 991.4,91.6 991.6,91.7 991.9,91.7 992.2,91.7 992.5,91.8 992.7,91.8 993.0,91.8 993.3,91.9 993.6,91.9 993.8,91.9 994.1,92.0 994.4,92.0 994.7,92.0 994.9,92.1 995.2,92.1 995.5,92.1 995.8,92.2 996.0,92.2 996.3,92.2 996.6,92.2 996.8,92.3 997.1,92.3 997.4,92.3 997.7,92.4 997.9,92.4 998.2,92.4 998.5,92.5 998.8,92.5 999.0,92.5 999.3,92.6 999.6,92.6 999.9,92.6 1000.1,92.7 1000.4,92.7 1000.7,92.7 1001.0,92.8 1001.2,92.8 1001.5,92.8 1001.8,92.9 1002.1,92.9 1002.3,92.9 1002.6,92.9 1002.9,93.0 1003.2,93.0 1003.4,93.0 1003.7,93.1 1004.0,93.1 1004.3,93.1 1004.5,93.2 1004.8,93.2 1005.1,93.2 1005.4,93.3 1005.6,93.3 1005.9,93.3 1006.2,93.4 1006.5,93.4 1006.7,93.4 1007.0,93.5 1007.3,93.5 1007.6,93.5 1007.8,93.6 1008.1,93.6 1008.4,93.6 1008.7,93.7 1008.9,93.7 1009.2,93.7 1009.5,93.7 1009.8,93.8 1010.0,93.8 1010.3,93.8 1010.6,93.9 1010.9,93.9 1011.1,93.9 1011.4,94.0 1011.7,94.0 1011.9,94.0 1012.2,94.1 1012.5,94.1 1012.8,94.1 1013.0,94.2 1013.3,94.2 1013.6,94.2 1013.9,94.3 1014.1,94.3 1014.4,94.3 1014.7,94.4 1015.0,94.4 1015.2,94.4 1015.5,94.5 1015.8,94.5 1016.1,94.5 1016.3,94.5 1016.6,94.6 1016.9,94.6 1017.2,94.6 1017.4,94.7 1017.7,94.7 1018.0,94.7 1018.3,94.8 1018.5,94.8 1018.8,94.8 1019.1,94.9 1019.4,94.9 1019.6,94.9 1019.9,95.0 1020.2,95.0 1020.5,95.0 1020.7,95.1 1021.0,95.1 1021.3,95.1 1021.6,95.2 1021.8,95.2 1022.1,95.2 1022.4,95.3 1022.7,95.3 1022.9,95.3 1023.2,95.3 1023.5,95.4 1023.8,95.4 1024.0,95.4 1024.3,95.5 1024.6,95.5 1024.9,95.5 1025.1,95.6 1025.4,95.6 1025.7,95.6 1026.0,95.7 1026.2,95.7 1026.5,95.7 1026.8,95.8 1027.0,95.8 1027.3,95.8 1027.5,95.9 1027.8,95.9 1028.1,95.9 1028.4,95.9 1028.6,96.0 1028.9,96.0 1029.2,96.0 1029.5,96.1 1029.7,96.1 1030.0,96.1 1030.3,96.2 1030.6,96.2 1030.8,96.2 1031.1,96.3 1031.4,96.3 1031.7,96.3 1031.9,96.4 1032.2,96.4 1032.5,96.4 1032.8,96.5 1033.0,96.5 1033.3,96.5 1033.6,96.6 1033.9,96.6 1034.1,96.6 1034.4,96.7 1034.7,96.7 1035.0,96.7 1035.2,96.7 1035.5,96.8 1035.8,96.8 1036.1,96.8 1036.3,96.9 1036.6,96.9 1036.9,96.9 1037.2,97.0 1037.4,97.0 1037.7,97.0 1038.0,97.1 1038.2,97.1 1038.5,97.1 1038.8,97.2 1039.1,97.2 1039.3,97.2 1039.6,97.3 1039.9,97.3 1040.2,97.3 1040.4,97.4 1040.7,97.4 1041.0,97.4 1041.3,97.5 1041.5,97.5 1041.8,97.5 1042.1,97.5 1042.4,97.6 1042.6,97.6 1042.9,97.6 1043.2,97.7 1043.5,97.7 1043.7,97.7 1044.0,97.8 1044.3,97.8 1044.6,97.8 1044.8,97.9 1045.1,97.9 1045.4,97.9 1045.7,98.0 1045.9,98.0 1046.2,98.0 1046.5,98.1 1046.8,98.1 1047.0,98.1 1047.3,98.2 1047.6,98.2 1047.9,98.2 1048.1,98.3 1048.4,98.3 1048.7,98.3 1048.9,98.3 1049.2,98.4 1049.5,98.4 1049.8,98.4 1050.0,98.5 1050.3,98.5 1050.6,98.5 1050.9,98.6 1051.1,98.6 1051.4,98.6 1051.7,98.7 1052.0,98.7 1052.2,98.7 1052.5,98.8 1052.8,98.8 1053.1,98.8 1053.3,98.9 1053.6,98.9 1053.9,98.9 1054.2,99.0 1054.4,99.0 1054.7,99.0 1055.0,99.0 1055.3,99.1 1055.5,99.1 1055.8,99.1 1056.1,99.2 1056.3,99.2 1056.6,99.2 1056.9,99.3 1057.2,99.3 1057.4,99.3 1057.7,99.4 1058.0,99.4 1058.3,99.4 1058.5,99.5 1058.8,99.5 1059.1,99.5 1059.4,99.6 1059.6,99.6 1059.9,99.6 1060.2,99.7 1060.5,99.7 1060.7,99.7 1061.0,99.8 1061.3,99.8 1061.6,99.8 1061.8,99.8 1062.1,99.9 1062.4,99.9 1062.7,99.9 1062.9,100.0 1063.2,100.0 1063.5,100.0 1063.8,100.1 1064.0,100.1 1064.3,100.1 1064.6,100.2 1064.9,100.2 1065.1,100.2 1065.4,100.3 1065.7,100.3 1066.0,100.3 1066.2,100.4 1066.5,100.4 1066.8,100.4 1067.0,100.5 1067.3,100.5 1067.6,100.5 1067.9,100.6 1068.1,100.6 1068.4,100.6 1068.7,100.6 1069.0,100.7 1069.2,100.7 1069.5,100.7 1069.8,100.8 1070.1,100.8 1070.4,100.8 1070.6,100.9 1070.9,100.9 1071.2,100.9 1071.5,101.0 1071.7,101.0 1072.0,101.0 1072.3,101.1 1072.6,101.1 1072.8,101.1 1073.1,101.2 1073.4,101.2 1073.7,101.2 1073.9,101.3 1074.2,101.3 1074.5,101.3 1074.8,101.4 1075.0,101.4 1075.3,101.4 1075.6,101.4 1075.9,101.5 1076.1,101.5 1076.4,101.5 1076.7,101.6 1077.0,101.6 1077.2,101.6 1077.5,101.7 1077.8,101.7 1078.1,101.7 1078.3,101.8 1078.6,101.8 1078.9,101.8 1079.2,101.9 1079.4,101.9 1079.7,101.9 1080.0,102.0 1080.3,102.0 1080.5,102.0 1080.8,102.1 1081.1,102.1 1081.4,102.1 1081.6,102.2 1081.9,102.2 1082.2,102.2 1082.5,102.3 1082.8,102.3 1083.0,102.3 1083.3,102.3 1083.6,102.4 1083.9,102.4 1084.1,102.4 1084.4,102.5 1084.7,102.5 1085.0,102.5 1085.3,102.6 1085.5,102.6 1085.8,102.6 1086.1,102.7 1086.3,102.7 1086.6,102.7 1086.9,102.8 1087.2,102.8 1087.4,102.8 1087.7,102.9 1088.0,102.9 1088.3,102.9 1088.5,103.0 1088.8,103.0 1089.1,103.0 1089.4,103.1 1089.6,103.1 1089.9,103.1 1090.2,103.1 1090.5,103.2 1090.7,103.2 1091.0,103.2 1091.3,103.3 1091.6,103.3 1091.8,103.3 1092.1,103.4 1092.4,103.4 1092.7,103.4 1092.9,103.5 1093.2,103.5 1093.5,103.5 1093.8,103.6 1094.0,103.6 1094.3,103.6 1094.6,103.7 1094.8,103.7 1095.1,103.7 1095.4,103.8 1095.7,103.8 1095.9,103.8 1096.2,103.9 1096.5,103.9 1096.8,103.9 1097.0,103.9 1097.3,104.0 1097.6,104.0 1097.9,104.0 1098.1,104.1 1098.4,104.1 1098.7,104.1 1099.0,104.2 1099.2,104.2 1099.5,104.2 1099.8,104.3 1100.1,104.3 1100.3,104.3 1100.6,104.4 1100.9,104.4 1101.2,104.4 1101.4,104.5 1101.7,104.5 1102.0,104.5 1102.3,104.6 1102.5,104.6 1102.8,104.6 1103.1,104.7 1103.4,104.7 1103.6,104.7 1103.9,104.7 1104.2,104.8 1104.5,104.8 1104.7,104.8 1105.0,104.9 1105.3,104.9 1105.6,104.9 1105.8,105.0 1106.1,105.0 1106.4,105.0 1106.7,105.1 1106.9,105.1 1107.2,105.1 1107.5,105.2 1107.8,105.2 1108.0,105.2 1108.3,105.3 1108.6,105.3 1108.9,105.3 1109.1,105.4 1109.4,105.4 1109.7,105.4 1110.0,105.5 1110.2,105.5 1110.5,105.5 1110.8,105.5 1111.1,105.6 1111.3,105.6 1111.6,105.6 1111.9,105.7 1112.1,105.7 1112.4,105.7 1112.7,105.8 1113.0,105.8 1113.2,105.8 1113.5,105.9 1113.8,105.9 1114.1,105.9 1114.3,106.0 1114.6,106.0 1114.9,106.0 1115.2,106.1 1115.4,106.1 1115.7,106.1 1116.0,106.2 1116.3,106.2 1116.5,106.2 1116.8,106.3 1117.1,106.3 1117.4,106.3 1117.6,106.3 1117.9,106.4 1118.2,106.4 1118.5,106.4 1118.7,106.5 1119.0,106.5 1119.3,106.5 1119.6,106.6 1119.8,106.6 1120.1,106.6 1120.4,106.7 1120.7,106.7 1120.9,106.7 1121.2,106.8 1121.5,106.8 1121.8,106.8 1122.0,106.9 1122.3,106.9 1122.6,106.9 1122.8,107.0 1123.1,107.0 1123.4,107.0 1123.7,107.1 1123.9,107.1 1124.2,107.1 1124.5,107.1 1124.8,107.2 1125.0,107.2 1125.3,107.2 1125.6,107.3 1125.9,107.3 1126.1,107.3 1126.4,107.4 1126.7,107.4 1127.0,107.4 1127.2,107.5 1127.5,107.5 1127.8,107.5 1128.1,107.6 1128.3,107.6 1128.6,107.6 1128.9,107.7 1129.2,107.7 1129.4,107.7 1129.7,107.8 1130.0,107.8 1130.3,107.8 1130.5,107.8 1130.8,107.9 1131.1,107.9 1131.4,107.9 1131.6,108.0 1131.9,108.0 1132.2,108.0 1132.5,108.1 1132.7,108.1 1133.0,108.1 1133.3,108.2 1133.6,108.2 1133.8,108.2 1134.1,108.3 1134.4,108.3 1134.7,108.3 1134.9,108.4 1135.2,108.4 1135.5,108.4 1135.8,108.5 1136.0,108.5 1136.3,108.5 1136.6,108.6 1136.9,108.6 1137.1,108.6 1137.4,108.6 1137.7,108.7 1137.9,108.7 1138.2,108.7 1138.5,108.8 1138.8,108.8 1139.0,108.8 1139.3,108.9 1139.6,108.9 1139.9,108.9 1140.1,109.0 1140.4,109.0 1140.7,109.0 1141.0,109.1 1141.2,109.1 1141.5,109.1 1141.8,109.2 1142.1,109.2 1142.3,109.2 1142.6,109.3 1142.9,109.3 1143.2,109.3 1143.4,109.4 1143.7,109.4 1144.0,109.4 1144.3,109.4 1144.5,109.5 1144.8,109.5 1145.1,109.5 1145.4,109.6 1145.6,109.6 1145.9,109.6 1146.2,109.7 1146.5,109.7 1146.7,109.7 1147.0,109.8 1147.3,109.8 1147.6,109.8 1147.8,109.9 1148.1,109.9 1148.4,109.9 1148.7,110.0 1148.9,110.0 1149.2,110.0 1149.5,110.1 1149.8,110.1 1150.0,110.1 1150.3,110.2 1150.6,110.2 1150.9,110.2 1151.1,110.2 1151.4,110.3 1151.7,110.3 1152.0,110.3 1152.2,110.4 1152.5,110.4 1152.8,110.4 1153.0,110.5 1153.3,110.5 1153.6,110.5 1153.9,110.6 1154.1,110.6 1154.4,110.6 1154.7,110.7 1155.0,110.7 1155.2,110.7 1155.5,110.8 1155.8,110.8 1156.1,110.8 1156.3,110.9 1156.6,110.9 1156.9,110.9 1157.2,111.0 1157.4,111.0 1157.7,111.0 1158.0,111.0 1158.3,111.1 1158.5,111.1 1158.8,111.1 1159.1,111.2 1159.4,111.2 1159.6,111.2 1159.9,111.3 1160.2,111.3 1160.5,111.3 1160.7,111.4 1161.0,111.4 1161.3,111.4 1161.6,111.5 1161.8,111.5 1162.1,111.5 1162.4,111.6 1162.7,111.6 1162.9,111.6 1163.2,111.7 1163.5,111.7 1163.8,111.7 1164.0,111.8 1164.3,111.8 1164.6,111.8 1164.9,111.8 1165.1,111.9 1165.4,111.9 1165.7,111.9 1166.0,112.0 1166.2,112.0 1166.5,112.0 1166.8,112.1 1167.1,112.1 1167.3,112.1 1167.6,112.2 1167.9,112.2 1168.2,112.2 1168.4,112.3 1168.7,112.3 1168.9,112.3 1168.9,112.3 1169.2,112.3 1169.5,112.4 1169.5,112.4 1170.0,112.9 1170.0,118.8" fill="none" stroke="#1f6fd1" stroke-width="2.2"/>
<line x1="80.0" x2="80.0" y1="50" y2="500" stroke="#999" stroke-dasharray="4 4"/>
<text x="84.0" y="64" text-anchor="start" fill="#1a1a1a">MOMBA_RIVER</text>
<circle cx="80.0" cy="467.9" r="3.5" fill="#1a1a1a"/>
<line x1="81.4" x2="81.4" y1="50" y2="500" stroke="#999" stroke-dasharray="4 4"/>
<text x="85.4" y="79" text-anchor="start" fill="#1a1a1a">MOMBA_INTAKE (TDH 12 m)</text>
<circle cx="81.4" cy="469.0" r="3.5" fill="#1a1a1a"/>
<line x1="81.8" x2="81.8" y1="50" y2="500" stroke="#999" stroke-dasharray="4 4"/>
<text x="85.8" y="94" text-anchor="start" fill="#1a1a1a">GRIT_TANK (TDH 17 m)</text>
<circle cx="81.8" cy="462.3" r="3.5" fill="#1a1a1a"/>
<line x1="96.6" x2="96.6" y1="50" y2="500" stroke="#999" stroke-dasharray="4 4"/>
<text x="100.6" y="109" text-anchor="start" fill="#1a1a1a">MOMBA_WTP (TDH 334 m)</text>
<circle cx="96.6" cy="460.2" r="3.5" fill="#1a1a1a"/>
<line x1="366.3" x2="366.3" y1="50" y2="500" stroke="#999" stroke-dasharray="4 4"/>
<text x="370.3" y="64" text-anchor="start" fill="#1a1a1a">IKANA_GBR</text>
<circle cx="366.3" cy="157.9" r="3.5" fill="#1a1a1a"/>
<line x1="900.3" x2="900.3" y1="50" y2="500" stroke="#999" stroke-dasharray="4 4"/>
<text x="904.3" y="64" text-anchor="start" fill="#1a1a1a">NKANGAMO_BPS (TDH 188 m)</text>
<circle cx="900.3" cy="271.0" r="3.5" fill="#1a1a1a"/>
<line x1="1168.9" x2="1168.9" y1="50" y2="500" stroke="#999" stroke-dasharray="4 4"/>
<text x="1164.9" y="64" text-anchor="end" fill="#1a1a1a">J-001N</text>
<line x1="1169.5" x2="1169.5" y1="50" y2="500" stroke="#999" stroke-dasharray="4 4"/>
<text x="1165.5" y="79" text-anchor="end" fill="#1a1a1a">J-002N</text>
<line x1="1170.0" x2="1170.0" y1="50" y2="500" stroke="#999" stroke-dasharray="4 4"/>
<text x="1166.0" y="94" text-anchor="end" fill="#1a1a1a">UHURU_GSR01</text>
<circle cx="1170.0" cy="121.9" r="3.5" fill="#1a1a1a"/>
<line x1="950" x2="980" y1="34" y2="34" stroke="#1f6fd1" stroke-width="2.2"/>
<text x="986" y="38" fill="#1a1a1a">HGL</text>
<rect x="1040" y="28" width="30" height="12" fill="#d9c9a8" stroke="#8a6d3b"/>
<text x="1076" y="38" fill="#1a1a1a">Ground</text>
</svg>